<svg width="44" height="43" viewBox="0 0 44 43" fill="none" xmlns="http://www.w3.org/2000/svg">
<rect x="7.94379" y="28.2135" width="28.0933" height="7.02333" rx="3.51167" stroke="#2F2B6D" stroke-width="2"/>
<path d="M8.85328 19.0427L14.9671 28.2135H29.0138L35.1276 19.0427C35.563 18.3897 35.7807 18.0632 35.7455 17.7074C35.7102 17.3516 35.4327 17.0741 34.8777 16.5191L21.9905 3.63184L9.10316 16.5191C8.54817 17.0741 8.27068 17.3516 8.23545 17.7074C8.20022 18.0632 8.41791 18.3897 8.85328 19.0427Z" stroke="#2F2B6D" stroke-width="2"/>
<path d="M26.258 19.4342C26.258 21.7911 24.3473 23.7017 21.9905 23.7017C19.6336 23.7017 17.723 21.7911 17.723 19.4342C17.723 17.0774 19.6336 15.1667 21.9905 15.1667C24.3473 15.1667 26.258 17.0774 26.258 19.4342Z" stroke="#2F2B6D" stroke-width="2"/>
<path d="M21.9905 3.63184V15.9227" stroke="#2F2B6D" stroke-width="2"/>
</svg>
