<svg width="236" height="47" viewBox="0 0 236 47" fill="none" xmlns="http://www.w3.org/2000/svg">
<path fill-rule="evenodd" clip-rule="evenodd" d="M229.439 35.3345C229.581 36.9533 230.876 39.0138 233.12 39.0138H234.432C234.942 39.0138 235.358 38.5969 235.358 38.0877V9.22136H235.352C235.327 8.73505 234.925 8.34556 234.432 8.34556H230.366C229.873 8.34556 229.471 8.73505 229.446 9.22136H229.439V11.5669C226.947 8.49534 223.019 7.22046 219.08 7.22046C210.125 7.22046 202.865 14.4855 202.865 23.4478C202.865 32.4109 210.125 39.676 219.08 39.676V39.6768C223.019 39.6768 227.313 38.1471 229.439 35.3309V35.3345ZM219.094 33.9967C213.399 33.9967 208.783 29.2742 208.783 23.4478C208.783 17.6227 213.399 12.9 219.094 12.9C224.791 12.9 229.407 17.6227 229.407 23.4478C229.407 29.2742 224.791 33.9967 219.094 33.9967Z" fill="white"/>
<path fill-rule="evenodd" clip-rule="evenodd" d="M197.724 36.3277L197.722 21.3906H197.723C197.723 12.9705 192.415 7.29028 183.951 7.29028C179.91 7.29028 176.598 9.62847 175.428 11.637C175.176 10.0665 174.342 8.41564 171.759 8.41564H170.442C169.932 8.41564 169.517 8.83297 169.517 9.34219V35.4072C169.517 35.408 169.517 35.4099 169.517 35.4112V38.2111H169.522C169.548 38.6966 169.95 39.0865 170.442 39.0865H174.509C174.572 39.0865 174.633 39.0791 174.692 39.0677C174.719 39.0624 174.744 39.0518 174.77 39.0444C174.8 39.0351 174.832 39.0279 174.86 39.0161C174.897 39.001 174.929 38.9809 174.963 38.9621C174.979 38.952 174.997 38.945 175.013 38.9344C175.053 38.9082 175.091 38.8767 175.126 38.8445C175.132 38.8386 175.139 38.8346 175.145 38.8291C175.186 38.7899 175.223 38.7468 175.255 38.7019C175.256 38.7013 175.256 38.7013 175.256 38.7013C175.357 38.5614 175.419 38.3928 175.429 38.2111H175.435V21.1589C175.435 16.6368 179.098 12.9705 183.617 12.9705C188.136 12.9705 191.8 16.6368 191.8 21.1589L191.803 35.4123L191.804 35.4072C191.804 35.4199 191.806 35.4328 191.806 35.4463V38.2111H191.812C191.838 38.6966 192.24 39.0865 192.732 39.0865H196.799C196.862 39.0865 196.923 39.0791 196.981 39.0677C197.005 39.0632 197.028 39.0535 197.051 39.047C197.085 39.0372 197.119 39.029 197.151 39.0161C197.184 39.0023 197.214 38.9831 197.246 38.9653C197.265 38.9545 197.285 38.9467 197.304 38.9344C197.341 38.9097 197.375 38.8798 197.409 38.8504C197.418 38.8424 197.427 38.8365 197.436 38.8284C197.474 38.7912 197.509 38.751 197.54 38.7089C197.542 38.7057 197.545 38.7032 197.547 38.7C197.647 38.5614 197.709 38.3941 197.719 38.2134C197.719 38.2122 197.72 38.2111 197.72 38.2111H197.725V36.3281L197.724 36.3277Z" fill="white"/>
<path fill-rule="evenodd" clip-rule="evenodd" d="M155.366 35.3345C155.508 36.9533 156.803 39.0138 159.046 39.0138H160.359C160.868 39.0138 161.284 38.5969 161.284 38.0877V9.22136H161.279C161.252 8.73505 160.85 8.34556 160.359 8.34556H156.292C155.8 8.34556 155.398 8.73505 155.371 9.22136H155.366V11.5669C152.874 8.49534 148.945 7.22046 145.005 7.22046C136.05 7.22046 128.791 14.4855 128.791 23.448C128.791 32.4109 136.05 39.6762 145.005 39.6762V39.6768C148.945 39.6768 153.239 38.1473 155.365 35.3309L155.366 35.3345ZM145.021 33.9967C139.326 33.9967 134.709 29.2744 134.709 23.448C134.709 17.6227 139.326 12.9 145.021 12.9C150.717 12.9 155.333 17.6227 155.333 23.448C155.333 29.2744 150.717 33.9967 145.021 33.9967Z" fill="white"/>
<path fill-rule="evenodd" clip-rule="evenodd" d="M104.738 31.1999C107.453 33.0823 110.417 33.9967 113.265 33.9967C115.978 33.9967 118.783 32.589 118.783 30.1388C118.783 26.8678 112.671 26.3588 108.831 25.0527C104.99 23.7465 101.682 21.0465 101.682 16.6739C101.682 9.98311 107.639 7.21973 113.199 7.21973C116.722 7.21973 120.356 8.38229 122.713 10.0477C123.524 10.6631 123.03 11.3696 123.03 11.3696L120.781 14.5848C120.528 14.9469 120.086 15.2598 119.451 14.8679C118.817 14.4762 116.591 12.8995 113.199 12.8995C109.806 12.8995 107.763 14.4673 107.763 16.4105C107.763 18.7408 110.419 19.4737 113.53 20.268C118.951 21.7302 124.864 23.488 124.864 30.1388C124.864 36.0339 119.354 39.6771 113.265 39.6771C108.65 39.6771 104.721 38.3606 101.426 35.9406C100.74 35.2531 101.219 34.6146 101.219 34.6146L103.457 31.4157C103.913 30.8177 104.487 31.0263 104.738 31.1999Z" fill="white"/>
<path fill-rule="evenodd" clip-rule="evenodd" d="M89.1041 35.3345C89.2462 36.9533 90.5411 39.0138 92.7842 39.0138H94.0969C94.6057 39.0138 95.0226 38.5969 95.0226 38.0877V9.22136H95.0169C94.9903 8.73505 94.5885 8.34556 94.0969 8.34556H90.0298C89.5379 8.34556 89.1362 8.73505 89.1089 9.22136H89.1041V11.5669C86.6122 8.49534 82.6834 7.22046 78.7437 7.22046C69.7887 7.22046 62.5291 14.4855 62.5291 23.448C62.5291 32.4109 69.7887 39.6762 78.7437 39.6762V39.6768C82.6834 39.6768 86.9769 38.1473 89.1034 35.3309L89.1041 35.3345ZM78.7596 33.9967C73.0641 33.9967 68.447 29.2744 68.447 23.448C68.447 17.6227 73.0641 12.9 78.7596 12.9C84.4548 12.9 89.0715 17.6227 89.0715 23.448C89.0715 29.2744 84.4548 33.9967 78.7596 33.9967Z" fill="white"/>
<path fill-rule="evenodd" clip-rule="evenodd" d="M39.7967 24.5517C33.7705 24.5517 28.8849 29.4371 28.8849 35.464C28.8849 41.4905 33.7705 46.3759 39.7967 46.3759C45.8232 46.3759 50.7086 41.4905 50.7086 35.464C50.7086 29.4371 45.8232 24.5517 39.7967 24.5517ZM11.447 24.5528C5.4206 24.5528 0.535156 29.4371 0.535156 35.464C0.535156 41.4905 5.4206 46.3759 11.447 46.3759C17.4736 46.3759 22.3593 41.4905 22.3593 35.464C22.3593 29.4371 17.4736 24.5528 11.447 24.5528ZM36.5335 10.9116C36.5335 16.9385 31.6484 21.8244 25.6219 21.8244C19.5953 21.8244 14.7101 16.9385 14.7101 10.9116C14.7101 4.88593 19.5953 0 25.6219 0C31.6484 0 36.5335 4.88593 36.5335 10.9116Z" fill="#F06A6A"/>
</svg>
