<svg width="170" height="41" viewBox="0 0 170 41" fill="none" xmlns="http://www.w3.org/2000/svg">
<path d="M111.885 10.5947C108.296 10.5947 104.747 12.1343 102.047 15.1737V0.216797H96.6986V25.4016C96.6986 33.5799 103.327 40.2086 111.506 40.2086C119.684 40.2086 126.312 33.5799 126.312 25.4016C126.312 17.2233 120.054 10.5947 111.885 10.5947ZM111.496 34.4997C106.467 34.4997 102.397 30.4206 102.397 25.4016C102.397 20.3826 106.477 16.3035 111.496 16.3035C116.524 16.3035 120.594 20.3826 120.594 25.4016C120.594 30.4206 116.524 34.4997 111.496 34.4997Z" fill="white"/>
<path d="M78.7225 10.5947C75.1333 10.5947 71.584 12.1343 68.8845 15.1737V0.216797H63.5356V25.4016C63.5356 33.5799 70.1643 40.2086 78.3426 40.2086C86.5209 40.2086 93.1495 33.5799 93.1495 25.4016C93.1495 17.2233 86.9008 10.5947 78.7225 10.5947ZM78.3326 34.4997C73.3036 34.4997 69.2345 30.4206 69.2345 25.4016C69.2345 20.3826 73.3136 16.3035 78.3326 16.3035C83.3616 16.3035 87.4307 20.3826 87.4307 25.4016C87.4307 30.4206 83.3616 34.4997 78.3326 34.4997Z" fill="white"/>
<path d="M34.3534 27.9591V11.3625H40.0922V27.9091C40.0922 32.1383 42.5417 34.8477 46.6709 34.8477C50.85 34.8477 53.2495 32.2382 53.2495 27.9091V11.3625H59.0383V27.9591C59.0383 35.6275 54.3893 40.1666 46.6709 40.1666C39.1524 40.1766 34.3534 35.4776 34.3534 27.9591Z" fill="white"/>
<path d="M136.662 39.5287H130.923V0.216797H136.662V39.5287Z" fill="white"/>
<path d="M169.156 27.6811H147.19C148.03 32.0602 151.1 35.0396 156.529 35.0396C159.708 35.0396 163.577 33.8398 166.077 32.0102L168.476 36.2393C165.607 38.3789 161.068 40.1485 156.319 40.1485C145.781 40.1485 141.242 32.7901 141.242 25.3816C141.242 21.1524 142.541 17.6632 145.211 14.8937C147.87 12.1243 151.37 10.7146 155.599 10.7146C159.618 10.7146 162.957 11.9643 165.517 14.5238C168.076 17.0833 169.376 20.5226 169.376 24.9117C169.356 25.7015 169.306 26.6413 169.156 27.6811ZM147.18 22.9821H163.567C163.097 18.543 159.808 15.6736 155.579 15.6736C151.25 15.6736 148.02 18.603 147.18 22.9821Z" fill="white"/>
<path d="M15.1961 10.5947C11.6069 10.5947 8.05761 12.1343 5.35816 15.1737V0.216797H-0.000732422V25.4016C-0.000732422 33.5799 6.6279 40.2086 14.8062 40.2086C22.9845 40.2086 29.6132 33.5799 29.6132 25.4016C29.6132 17.2233 23.3645 10.5947 15.1961 10.5947ZM14.8062 34.4997C9.77725 34.4997 5.70809 30.4206 5.70809 25.4016C5.70809 20.3826 9.78725 16.3035 14.8062 16.3035C19.8352 16.3035 23.9043 20.3826 23.9043 25.4016C23.9043 30.4206 19.8352 34.4997 14.8062 34.4997Z" fill="white"/>
</svg>
