<svg width="41" height="41" viewBox="0 0 41 41" fill="none" xmlns="http://www.w3.org/2000/svg">
<path d="M34.8029 8.19381L33.5557 9.02716L34.8029 8.19381ZM34.8029 28.5856L33.5557 27.7522V27.7522L34.8029 28.5856ZM32.6483 30.7402L31.8149 29.493H31.8149L32.6483 30.7402ZM24.4048 32.0537L24.3982 30.5537C23.5724 30.5573 22.9048 31.2278 22.9048 32.0537H24.4048ZM24.4048 32.0564L25.7464 32.7272C25.8505 32.5189 25.9048 32.2892 25.9048 32.0564H24.4048ZM21.3944 38.077L22.7361 38.7479V38.7478L21.3944 38.077ZM16.5952 32.0564H15.0952C15.0952 32.2892 15.1495 32.5189 15.2536 32.7272L16.5952 32.0564ZM16.5952 32.0537H18.0952C18.0952 31.2278 17.4276 30.5573 16.6018 30.5537L16.5952 32.0537ZM8.35174 30.7402L9.18509 29.493H9.18509L8.35174 30.7402ZM6.19709 28.5856L7.4443 27.7522L7.4443 27.7522L6.19709 28.5856ZM6.19709 8.19381L4.94989 7.36045H4.94989L6.19709 8.19381ZM8.35174 6.03916L7.51838 4.79196V4.79196L8.35174 6.03916ZM32.6483 6.03916L31.8149 7.28637V7.28637L32.6483 6.03916ZM37.619 18.3897C37.619 15.6789 37.6209 13.5328 37.4468 11.8221C37.2702 10.0862 36.9003 8.63287 36.0501 7.36045L33.5557 9.02716C34.0216 9.72449 34.3098 10.627 34.4622 12.1257C34.6172 13.6494 34.619 15.6164 34.619 18.3897H37.619ZM36.0501 29.4189C36.9003 28.1465 37.2702 26.6932 37.4468 24.9573C37.6209 23.2465 37.619 21.1005 37.619 18.3897H34.619C34.619 21.163 34.6172 23.13 34.4622 24.6537C34.3098 26.1523 34.0216 27.0549 33.5557 27.7522L36.0501 29.4189ZM33.4816 31.9874C34.4981 31.3082 35.3709 30.4354 36.0501 29.4189L33.5557 27.7522C33.0954 28.4412 32.5038 29.0327 31.8149 29.493L33.4816 31.9874ZM24.4113 33.5537C26.5105 33.5445 28.2351 33.5049 29.6664 33.3071C31.1217 33.1059 32.3703 32.73 33.4816 31.9874L31.8149 29.493C31.2055 29.9002 30.4386 30.1718 29.2556 30.3354C28.0484 30.5022 26.5117 30.5445 24.3982 30.5537L24.4113 33.5537ZM25.9048 32.0564V32.0537H22.9048V32.0564H25.9048ZM22.7361 38.7478L25.7464 32.7272L23.0631 31.3855L20.0528 37.4062L22.7361 38.7478ZM18.2639 38.7478C19.1852 40.5905 21.8148 40.5905 22.7361 38.7479L20.0528 37.4062C20.237 37.0377 20.7629 37.0377 20.9472 37.4062L18.2639 38.7478ZM15.2536 32.7272L18.2639 38.7478L20.9472 37.4062L17.9369 31.3855L15.2536 32.7272ZM15.0952 32.0537V32.0564H18.0952V32.0537H15.0952ZM7.51838 31.9874C8.62972 32.73 9.87828 33.1059 11.3336 33.3071C12.7649 33.5049 14.4895 33.5445 16.5887 33.5537L16.6018 30.5537C14.4883 30.5445 12.9516 30.5022 11.7444 30.3354C10.5613 30.1718 9.79448 29.9002 9.18509 29.493L7.51838 31.9874ZM4.94989 29.4189C5.6291 30.4354 6.50187 31.3082 7.51838 31.9874L9.18509 29.493C8.49615 29.0327 7.90463 28.4412 7.4443 27.7522L4.94989 29.4189ZM3.38095 18.3897C3.38095 21.1005 3.37914 23.2465 3.55317 24.9573C3.72975 26.6932 4.09969 28.1465 4.94989 29.4189L7.4443 27.7522C6.97836 27.0549 6.69022 26.1523 6.53777 24.6537C6.38276 23.13 6.38095 21.163 6.38095 18.3897H3.38095ZM4.94989 7.36045C4.09969 8.63287 3.72975 10.0862 3.55317 11.8221C3.37914 13.5328 3.38095 15.6789 3.38095 18.3897H6.38095C6.38095 15.6164 6.38276 13.6494 6.53777 12.1257C6.69022 10.627 6.97836 9.72449 7.4443 9.02716L4.94989 7.36045ZM7.51838 4.79196C6.50187 5.47117 5.6291 6.34394 4.94989 7.36045L7.4443 9.02716C7.90463 8.33822 8.49615 7.7467 9.18509 7.28637L7.51838 4.79196ZM18.5476 3.22302C15.8368 3.22302 13.6908 3.22121 11.98 3.39524C10.2441 3.57182 8.7908 3.94176 7.51838 4.79196L9.18509 7.28637C9.88242 6.82043 10.785 6.53229 12.2836 6.37984C13.8073 6.22484 15.7744 6.22302 18.5476 6.22302V3.22302ZM22.4524 3.22302H18.5476V6.22302H22.4524V3.22302ZM33.4816 4.79196C32.2092 3.94176 30.7559 3.57182 29.02 3.39524C27.3092 3.22121 25.1632 3.22302 22.4524 3.22302V6.22302C25.2256 6.22302 27.1927 6.22484 28.7164 6.37984C30.215 6.53229 31.1176 6.82043 31.8149 7.28637L33.4816 4.79196ZM36.0501 7.36045C35.3709 6.34394 34.4981 5.47117 33.4816 4.79196L31.8149 7.28637C32.5038 7.7467 33.0954 8.33823 33.5557 9.02716L36.0501 7.36045Z" fill="#2F2B6D"/>
<circle cx="28.3095" cy="18.5476" r="1.95238" fill="#2F2B6D" stroke="#2F2B6D" stroke-linecap="round"/>
<circle cx="20.5" cy="18.5476" r="1.95238" fill="#2F2B6D" stroke="#2F2B6D" stroke-linecap="round"/>
<circle cx="12.6905" cy="18.5476" r="1.95238" fill="#2F2B6D" stroke="#2F2B6D" stroke-linecap="round"/>
</svg>
