<svg width="178" height="39" viewBox="0 0 178 39" fill="none" xmlns="http://www.w3.org/2000/svg">
<path d="M71.714 14.4703H77.5468C76.5738 8.26876 71.2044 3.94922 64.2169 3.94922C55.9491 3.94922 49.745 10.0278 49.745 20.2083C49.745 30.2069 55.67 36.4084 64.3859 36.4084C72.2082 36.4084 77.8079 31.3771 77.8079 23.2322V19.4376H64.9876V23.9108H72.2696C72.1774 28.4171 69.1689 31.2695 64.4166 31.2695C59.1266 31.2695 55.501 27.3059 55.501 20.1469C55.501 13.0338 59.1881 9.08556 64.2937 9.08556C68.1037 9.08556 70.7103 11.1211 71.714 14.4703Z" fill="white"/>
<path d="M81.6636 35.9757H87.2481V12.2913H81.6636V35.9757ZM84.4802 8.52735C86.2546 8.52735 87.7038 7.16773 87.7038 5.50341C87.7038 3.83909 86.2546 2.46411 84.4802 2.46411C82.7057 2.46411 81.2411 3.82117 81.2411 5.50341C81.2411 7.18565 82.6801 8.52735 84.4699 8.52735H84.4802Z" fill="white"/>
<path d="M103.971 12.2912H99.2953V6.60181H93.7109V12.2912H90.3489V16.6107H93.7109V29.7869C93.6801 34.2447 96.9217 36.4442 101.116 36.3136C102.233 36.2916 103.341 36.1042 104.403 35.758L103.461 31.3898C102.928 31.5283 102.379 31.6016 101.828 31.6074C100.422 31.6074 99.2953 31.1133 99.2953 28.86V16.5979H103.971V12.2912Z" fill="white"/>
<path d="M108.293 35.9755H127.932V31.1772H114.018V4.37915H108.293V35.9755Z" fill="white"/>
<path d="M138.63 36.4543C142.348 36.4543 144.568 34.7106 145.587 32.7211H145.771V35.9755H151.148V20.1159C151.148 13.8529 146.042 11.9709 141.521 11.9709C136.538 11.9709 132.712 14.1909 131.478 18.5104L136.694 19.253C137.247 17.6322 138.822 16.2444 141.559 16.2444C144.153 16.2444 145.571 17.5707 145.571 19.9008V19.993C145.571 21.5958 143.889 21.6752 139.708 22.1207C135.112 22.6149 130.715 23.9873 130.715 29.3259C130.7 33.986 134.108 36.4543 138.63 36.4543ZM140.466 32.3575C138.136 32.3575 136.469 31.2924 136.469 29.2414C136.469 27.0957 138.335 26.2021 140.822 25.8462C142.289 25.6465 145.22 25.2752 145.943 24.6914V27.4824C145.958 30.112 143.828 32.3499 140.466 32.3499V32.3575Z" fill="white"/>
<path d="M155.261 35.9755H160.754V32.2423H161.076C161.957 33.9707 163.793 36.3929 167.867 36.3929C173.451 36.3929 177.632 31.9633 177.632 24.1589C177.632 16.2598 173.328 11.971 167.851 11.971C163.67 11.971 161.926 14.4854 161.076 16.1984H160.841V4.37915H155.261V35.9755ZM160.738 24.1282C160.738 19.5193 162.712 16.5517 166.307 16.5517C170.025 16.5517 171.94 19.7139 171.94 24.1282C171.94 28.5424 169.997 31.8096 166.307 31.8096C162.743 31.8096 160.738 28.7242 160.738 24.1282Z" fill="white"/>
<path d="M39.2188 15.2025L39.165 15.0592L33.7368 0.899654C33.6269 0.621629 33.4313 0.38578 33.1786 0.226246C32.9899 0.105486 32.7756 0.0305994 32.5528 0.00758829C32.33 -0.0154246 32.105 0.0140791 31.8955 0.0937333C31.6863 0.17339 31.4984 0.300979 31.3473 0.466279C31.1963 0.631576 31.0859 0.829986 31.0252 1.0456L27.3612 12.2631H12.5231L8.85905 1.0456C8.79793 0.830309 8.68737 0.632273 8.53615 0.46729C8.38493 0.302308 8.19724 0.174944 7.98805 0.0953541C7.77888 0.0157639 7.55402 -0.0138491 7.33136 0.00887623C7.10873 0.0316031 6.89447 0.106036 6.70568 0.226246C6.45289 0.38578 6.25737 0.621629 6.1475 0.899654L0.721834 15.0617L0.665504 15.2025C-0.115635 17.244 -0.211868 19.4841 0.391311 21.5851C0.994488 23.6861 2.26438 25.5341 4.00951 26.8501L4.03 26.8655L4.07606 26.9014L12.3336 33.09L16.4304 36.1857L18.9192 38.0676C19.2112 38.2883 19.5672 38.4077 19.9332 38.4077C20.2991 38.4077 20.6551 38.2883 20.9471 38.0676L23.4359 36.1857L27.5327 33.09L35.8492 26.8655L35.8722 26.8476C37.6172 25.532 38.8872 23.6846 39.491 21.5841C40.0945 19.4837 39.999 17.244 39.2188 15.2025Z" fill="#E24329"/>
<path d="M39.2174 15.2027L39.1636 15.0593C36.5189 15.602 34.0268 16.723 31.8662 18.3419L19.9472 27.3548L27.5365 33.0902L35.8529 26.8657L35.876 26.8478C37.6202 25.5314 38.8892 23.6838 39.4919 21.5834C40.0944 19.483 39.9981 17.2436 39.2174 15.2027Z" fill="#FC6D26"/>
<path d="M12.3333 33.09L16.4301 36.1856L18.9189 38.0676C19.2109 38.2883 19.5668 38.4076 19.9328 38.4076C20.2988 38.4076 20.6547 38.2883 20.9468 38.0676L23.4356 36.1856L27.5323 33.09L19.9431 27.3545L12.3333 33.09Z" fill="#FCA326"/>
<path d="M8.01665 18.3418C5.85678 16.7237 3.36563 15.6036 0.721834 15.0618L0.665504 15.2026C-0.115635 17.2441 -0.211868 19.4842 0.391311 21.5852C0.994488 23.6861 2.26438 25.5341 4.00952 26.8502L4.03 26.8655L4.07606 26.9014L12.3336 33.0901L19.9281 27.3546L8.01665 18.3418Z" fill="#FC6D26"/>
</svg>
