<svg width="982" height="954" viewBox="0 0 982 954" fill="none" xmlns="http://www.w3.org/2000/svg">
<circle cx="741.61" cy="129.564" r="94.6975" fill="#D3B3A7"/>
<circle cx="740.131" cy="129.069" r="84.34" fill="#EDC9BC"/>
<circle cx="740.835" cy="128.369" r="64.3635" fill="white" stroke="#6F5773" stroke-width="2"/>
<circle cx="742.935" cy="124.936" r="17.7558" fill="#F8DAD0" fill-opacity="0.76"/>
<rect x="738.381" y="69.6104" width="4.217" height="8.43399" fill="#E95850" fill-opacity="0.72"/>
<rect x="713.078" y="76.5847" width="4.217" height="8.43399" transform="rotate(-40.6917 713.078 76.5847)" fill="#46274C" fill-opacity="0.78"/>
<rect x="693.4" y="93.4475" width="4.217" height="8.43399" transform="rotate(-40.6917 693.4 93.4475)" fill="#46274C" fill-opacity="0.78"/>
<rect x="682.364" y="124.846" width="4.217" height="8.43399" transform="rotate(-92.8831 682.364 124.846)" fill="#E95850" fill-opacity="0.72"/>
<rect x="691.416" y="156.377" width="4.217" height="8.43399" transform="rotate(-122.01 691.416 156.377)" fill="#46274C" fill-opacity="0.78"/>
<rect x="714.184" y="180.214" width="4.217" height="8.43399" transform="rotate(-158.306 714.184 180.214)" fill="#46274C" fill-opacity="0.78"/>
<rect x="745.373" y="186.781" width="4.217" height="8.43399" transform="rotate(-179.467 745.373 186.781)" fill="#E95850" fill-opacity="0.72"/>
<rect x="777.746" y="174.748" width="4.217" height="8.43399" transform="rotate(143.022 777.746 174.748)" fill="#46274C" fill-opacity="0.78"/>
<rect x="796.214" y="148.504" width="4.217" height="8.43399" transform="rotate(96.0975 796.214 148.504)" fill="#46274C" fill-opacity="0.78"/>
<rect x="799.222" y="125.328" width="4.217" height="8.43399" transform="rotate(96.0975 799.222 125.328)" fill="#E95850" fill-opacity="0.72"/>
<rect x="789.029" y="96.3196" width="4.217" height="8.43399" transform="rotate(56.9694 789.029 96.3196)" fill="#46274C" fill-opacity="0.78"/>
<rect x="762.604" y="76.6431" width="4.217" height="8.43399" transform="rotate(21.862 762.604 76.6431)" fill="#46274C" fill-opacity="0.78"/>
<path d="M741.893 126.539L705.345 101.237C717.996 107.562 743.579 121.338 744.704 125.836C745.828 130.334 744.235 151.138 743.298 160.978L741.893 126.539Z" fill="#6F5773"/>
<path fill-rule="evenodd" clip-rule="evenodd" d="M587.869 55.4517C658.703 61.7024 738.476 8.00411 793.07 53.5424C848.609 99.8685 826.146 186.524 831.452 258.629C837.498 340.783 880.074 434.415 825.651 496.279C770.508 558.963 669.185 554.539 587.869 535.52C521.63 520.027 492.38 449.856 440.274 406.143C377.987 353.888 277.392 337.516 257.818 258.629C236.188 171.463 266.416 60.9175 342.924 13.8196C416.232 -31.3081 502.106 47.8835 587.869 55.4517Z" fill="#D9ECFF" fill-opacity="0.16"/>
<path d="M391.922 104.642C445.247 134.204 499.561 226.337 520.052 268.709C592.387 417.749 733.058 723.663 717.06 754.998C697.063 794.167 520.051 806.731 437.099 806.731C370.738 806.731 155.441 806.731 115.664 745.39C-6.54058 556.935 100.927 253.351 160.918 175.012C243.564 67.09 325.264 67.6902 391.922 104.642Z" fill="#F2CD87"/>
<path d="M153.01 649.206C122.57 636.346 103.86 603.274 107.549 587.33H524.215L554.259 684.973C450.818 676.54 206.925 671.983 153.01 649.206Z" fill="#E4B061" fill-opacity="0.74"/>
<path d="M183.884 305.697C246.586 231.193 325.271 179.679 356.775 163.235C422.427 575.96 268.869 546.669 183.884 480.432C147.462 461.53 105.507 398.828 183.884 305.697Z" fill="#E4B061" fill-opacity="0.77"/>
<path d="M241.442 263.95C280.014 217.604 333.76 177.861 355.812 163.782C375.372 169.389 404.924 176.939 412.998 169.762C423.089 160.792 466.445 193.683 504.195 239.656C522.812 262.328 547.925 295.844 560.633 308.054C571.846 285.628 575.784 367.975 592.604 341.438L643.995 290.046C622.317 442.54 600.625 447.092 550.541 447.092C510.474 447.092 480.773 406.726 470.93 386.543L470.93 447.092L310.214 447.092C170.054 465.407 159.215 405.979 168.559 376.825C177.903 347.672 193.227 321.883 241.442 263.95Z" fill="white"/>
<path d="M402.352 186.125L393.661 171.105L381.06 186.125C373.412 249.385 366.865 364.742 364.547 414.513H384.102C383.059 393.662 395.834 253.567 402.352 186.125Z" fill="#8697FB"/>
<path d="M366.72 149.674C391.405 146.992 424.975 147.771 430.819 149.674L393.79 169.947L366.72 149.674Z" fill="#46274C"/>
<rect x="24.5358" y="713.721" width="222.141" height="65.6766" rx="6" fill="#5E75FF"/>
<rect x="0.390839" y="779.398" width="287.818" height="62.7791" rx="10" fill="#90AEAD"/>
<rect x="79.5898" y="713.721" width="10.6242" height="65.6766" fill="#FBF1DC"/>
<rect x="96.9745" y="713.721" width="10.6242" height="65.6766" fill="#FBF1DC"/>
<rect x="35.1603" y="796.781" width="221.176" height="28.0091" fill="white" fill-opacity="0.71"/>
<path d="M35.1885 779.888H212.902" stroke="#46274C" stroke-opacity="0.81" stroke-width="2" stroke-linecap="round"/>
<path d="M427.317 804.086C418.265 808.974 411.795 820.222 410.258 826.677C422.86 826.677 455.072 814.782 462.817 807.774C470.563 800.766 466.044 767.049 462.817 751.066C438.382 773.657 450.369 791.638 427.317 804.086Z" fill="#E95850"/>
<path d="M440.892 71.3796C442.359 64.3598 440.281 57.3401 439.058 54.7077C426.833 48.8579 400.55 38.9132 393.215 45.933C385.88 52.9527 388.936 74.012 391.381 83.6641C378.545 54.7077 352.873 69.6246 352.873 87.174C352.873 101.214 368.765 104.723 376.711 104.723V163.514C396.515 179.659 413.691 170.241 419.804 163.514L421.638 137.19C450.977 128.415 448.227 101.214 444.559 92.4388C440.892 83.6641 439.058 80.1543 440.892 71.3796Z" fill="#EAA296"/>
<ellipse cx="4.69052" cy="9.54323" rx="4.69052" ry="9.54323" transform="matrix(0.987054 -0.160386 0.136365 0.990659 435.245 88.2327)" fill="#E9746E" fill-opacity="0.78"/>
<ellipse cx="7.98517" cy="11.5086" rx="7.98517" ry="11.5086" transform="matrix(0.984571 0.174985 -0.117907 0.993025 397.493 84.9585)" fill="#E9746E" fill-opacity="0.78"/>
<path d="M390.464 131.048C402.2 139.472 416.747 138.653 422.554 137.191L420.603 155.2C404.467 152.392 393.826 137.483 390.464 131.048Z" fill="#46274C"/>
<path d="M369.379 67.8726C382.582 65.7667 389.353 79.8529 391.492 86.2877C391.187 77.5129 392.3 57.8692 395.968 56.4653C400.552 54.7103 428.058 56.4653 439.06 54.7103C450.062 52.9554 457.398 49.4455 458.315 39.7934C459.048 32.0716 455.564 26.6299 449.146 25.7536C424.639 22.4072 384.049 23.9986 376.714 29.2635C370.846 33.4753 369.379 41.548 369.379 45.0579V67.8726Z" fill="#46274C"/>
<path d="M362.958 79.2817L378.888 84.9659L368.459 90.6888" stroke="#46274C" stroke-width="2" stroke-linecap="round"/>
<path d="M419.304 77.0127C418.658 81.7248 415.233 91.1489 406.702 91.1489C396.04 91.1489 394.101 80.7824 394.101 77.0127" stroke="white" stroke-width="2"/>
<path d="M450.59 77.0127C449.62 81.0539 445.937 89.5093 438.957 91.0014C431.978 92.4935 427.002 82.2973 425.387 77.0127" stroke="white" stroke-width="2"/>
<path d="M450.59 77.0127H388.016" stroke="white" stroke-width="2" stroke-linecap="round"/>
<path d="M354.869 164.633L367.968 148.727L393.533 170.597L431.08 149.025L438.422 177.731C377.877 171.268 360.992 170.935 354.869 164.633Z" fill="white"/>
<path d="M381.497 186.566C372.682 260.287 364.55 381.823 364.55 416.721" stroke="#46274C" stroke-width="2"/>
<path d="M401.687 184.539L384.102 404.795" stroke="#46274C" stroke-width="2"/>
<path d="M436.679 177.732L410.889 199.669L393.269 171.246L373.117 196.96L354.455 162.663" stroke="#46274C" stroke-width="2"/>
<ellipse cx="4.24628" cy="4.19376" rx="4.24628" ry="4.19376" transform="matrix(-0.924625 -0.380878 -0.370247 0.928933 396.498 193.739)" fill="white"/>
<ellipse cx="4.24628" cy="4.19376" rx="4.24628" ry="4.19376" transform="matrix(-0.924625 -0.380878 -0.370247 0.928933 393.266 236.249)" fill="white"/>
<path d="M460.156 25.3907C466.671 32.384 466.807 55.4071 437.651 52.592" stroke="#46274C" stroke-width="2" stroke-linecap="round"/>
<path d="M558.354 311.586C556.326 324.986 552.27 354.083 552.27 363.272" stroke="#46274C" stroke-width="2" stroke-linecap="round"/>
<ellipse cx="5.43558" cy="3.13356" rx="5.43558" ry="3.13356" transform="matrix(-0.970601 -0.240693 -0.233321 0.9724 393.476 426.822)" fill="white" fill-opacity="0.63"/>
<path d="M806.368 755.941L792.01 707.973L694.788 748.215L712.62 797.502L806.368 755.941Z" fill="#EAA296"/>
<path d="M805.501 755.615L814.062 786.551C824.552 852.236 761.82 855.067 729.143 848.272L711.754 797.176L805.501 755.615Z" fill="white"/>
<path d="M770.769 840.435L717.25 808.597C678.173 854.735 687.553 907.583 697.128 928.24L979.723 837.072C976.578 827.022 969.169 801.793 956.053 791.254C936.094 775.216 838.259 798.059 820.835 807.005C806.896 814.162 790.083 830.903 770.769 840.435Z" fill="#E95850"/>
<path d="M974.178 820.332L693.817 908.453C689.193 909.906 694.111 922.263 697.148 928.26L979.048 836.797L974.178 820.332Z" fill="#46274C"/>
<path d="M840.491 802.47L805.886 840.956" stroke="#46274C" stroke-width="3" stroke-linecap="round"/>
<path d="M820.101 806.415L779.087 838.958" stroke="#46274C" stroke-width="3" stroke-linecap="round"/>
<path d="M972.555 821.431L692.537 908.256" stroke="white" stroke-width="4" stroke-linecap="round"/>
<path d="M528.566 520.916L479.942 515.78L503.102 595.525L547.541 588.911L528.566 520.916Z" fill="#E97E77"/>
<path d="M528.957 522.891L562.56 519.729C621.18 518.81 607.801 563.3 595.828 582.825L570.861 589.216L548.501 589.216L528.957 522.891Z" fill="white"/>
<path d="M596.852 556.561L561.77 588.12C594.259 616.04 639.209 613.397 658.818 609.249L633.032 427.764C623.775 428.852 600.627 431.283 589.082 438.463C571.516 449.387 572.922 511.483 577.38 522.953C580.946 532.128 592.242 543.879 596.852 556.561Z" fill="#ECE9E8"/>
<path d="M617.556 429.763L641.131 609.617C641.52 612.584 653.099 610.6 658.84 609.237L632.668 428.155L617.556 429.763Z" fill="#46274C"/>
<path d="M577.144 510.483L603.869 535.008" stroke="#46274C" stroke-width="3" stroke-linecap="round"/>
<path d="M618.198 430.856L640.721 610.389" stroke="white" stroke-width="4" stroke-linecap="round"/>
<path d="M258.264 370.102L315.449 308.805C306.062 329.666 291.656 370.862 306.995 373.84H310.964C309.464 374.071 308.145 374.063 306.995 373.84H283.472L258.264 370.102Z" fill="#ECE9E8"/>
<path d="M249.665 370.474C263.185 370.474 272.867 374.959 311.709 374.959" stroke="#46274C" stroke-width="2"/>
<path d="M162.893 491.663C213.194 463.93 307.088 447.959 332.485 441.567C515.122 491.661 644.332 405.572 682.797 441.565C721.263 477.559 764.173 579.027 840.469 691.298L667.263 772.734L584.303 524.473H492.589C498.914 542.658 511.423 634.682 515.122 657.3C371.226 647.417 197.66 636.344 187.008 635.164C173.692 633.688 110.991 624.483 104.333 584.654C97.676 544.825 100.017 526.329 162.893 491.663Z" fill="#9872EF"/>
<path d="M503.366 275.077H631.343C634.317 275.077 636.633 277.658 636.314 280.615L615.996 468.652H458.858L498.472 279.055C498.956 276.738 500.999 275.077 503.366 275.077Z" fill="white" stroke="#46274C" stroke-width="2" stroke-linecap="round"/>
<path d="M374.71 449.904L472.435 451.181L470.042 469.99H420.07L369.645 465.395V454.904C369.645 452.117 371.923 449.868 374.71 449.904Z" fill="#46274C"/>
<path d="M512.889 273.842H660.349C663.525 273.842 665.896 276.764 665.242 279.871L625.066 470.836L468.533 468.582L507.993 277.829C508.473 275.507 510.518 273.842 512.889 273.842Z" fill="#46274C"/>
<ellipse cx="13.9444" cy="22.1932" rx="13.9444" ry="22.1932" transform="matrix(-0.989131 -0.147039 -0.147039 0.989131 588.616 349.374)" fill="white" fill-opacity="0.47"/>
<path d="M490.478 525.153C460.203 528.227 385.084 532.53 326.808 525.153" stroke="#46274C" stroke-opacity="0.73" stroke-width="2"/>
<path d="M637.01 430.379L613.356 415.008C609.422 408.889 617.078 397.334 621.312 395.508L624.574 392.594C628.926 384.992 632.622 377.383 631.578 370.191C630.65 363.791 621.427 338.699 627.293 335.487C631.985 332.917 639.594 344.307 641.664 347.535C640.186 336.757 641.452 324.725 647.843 326.334C652.955 327.62 653.337 333.802 653.61 339.093C661.88 317.265 668.182 309.882 669.182 319.32C672.416 349.859 679.431 371.939 637.01 430.379Z" fill="#EAA296"/>
<path d="M655.004 341.975C655.655 346.56 656.987 356.836 657.105 361.257" stroke="#46274C" stroke-width="2" stroke-linecap="round"/>
<path d="M640.432 345.966C643.263 352.929 648.641 368.158 647.51 373.362C646.379 378.566 645.056 380.52 644.536 380.847" stroke="#46274C" stroke-width="2" stroke-linecap="round"/>
<ellipse cx="6.01369" cy="2.60929" rx="6.01369" ry="2.60929" transform="matrix(-0.173872 -0.984768 0.999845 -0.0176019 648.765 339.284)" fill="white" fill-opacity="0.63"/>
<ellipse cx="4.63937" cy="2.60929" rx="4.63937" ry="2.60929" transform="matrix(0.150272 -0.988645 0.952941 0.303155 663.395 325.035)" fill="white" fill-opacity="0.63"/>
<ellipse cx="5.42061" cy="2.77846" rx="5.42061" ry="2.77846" transform="matrix(-0.676262 -0.736661 0.813002 -0.582261 634.21 347.068)" fill="white" fill-opacity="0.63"/>
<path d="M626.208 646.626C575.924 633.975 552.811 603.404 547.54 589.7H564.934C581.063 602.666 604.861 609.07 614.744 610.652L626.208 646.626Z" fill="#E4B061"/>
<path d="M315.683 405L317.632 432.444C321.363 438.681 336.536 437.557 340.564 434.795L345.108 433.373C354.722 433.22 363.988 433.631 370.302 437.9C375.921 441.698 394.941 461.363 401.173 457.855C406.159 455.049 399.369 443.195 397.399 439.91C406.907 446.233 419.093 450.798 420.999 444.578C422.524 439.602 416.82 436.374 411.908 433.657C437.235 436.831 447.689 434.908 439.205 429.623C411.749 412.521 394.419 396.157 315.683 405Z" fill="#EAA296"/>
<path d="M409.902 431.112C405.868 428.402 396.761 422.439 392.598 420.263" stroke="#46274C" stroke-width="2" stroke-linecap="round"/>
<path d="M398.23 441.701C393.097 436.012 381.436 424.264 375.851 422.788C370.265 421.312 367.684 421.526 367.091 421.818" stroke="#46274C" stroke-width="2" stroke-linecap="round"/>
<ellipse cx="6.32936" cy="2.62519" rx="6.32936" ry="2.62519" transform="matrix(0.805556 0.580489 0.55228 -0.841631 409.11 437.71)" fill="white" fill-opacity="0.63"/>
<ellipse cx="5.03059" cy="2.55765" rx="5.03059" ry="2.55765" transform="matrix(0.94642 0.309487 0.228209 -0.976547 430.615 431.89)" fill="white" fill-opacity="0.63"/>
<path d="M329.619 555.142C345.229 547.15 359.619 541.343 373.384 532.265" stroke="#46274C" stroke-opacity="0.73" stroke-width="2"/>
<ellipse cx="5.36553" cy="2.98584" rx="5.36553" ry="2.98584" transform="matrix(0.343377 0.9336 0.925733 -0.392613 393.824 446.506)" fill="white" fill-opacity="0.63"/>
<path d="M324.352 446.348C348.174 450.193 347.549 430.276 375.802 442.594C369.529 434.224 353.577 429.264 342.868 432.319C334.3 434.762 325.38 434.247 324.352 434.014L324.352 446.348Z" fill="#E97E77"/>
<path d="M328.904 445.974L334.571 377.583L315.136 375.714L309.842 445.974L328.904 445.974Z" fill="#8697FB"/>
<path d="M696.105 455.075C778.631 624.278 796.612 697.583 796.612 710.954L845.943 691.129C811.642 654.614 742.209 519.621 696.105 455.075Z" fill="#B88CF6"/>
<path d="M459.445 808.952L462.214 750.729C515.008 758.061 548.071 801.85 559.593 823.395L363.349 947.464C357.066 938.003 341.077 914.58 338.882 898.034C335.543 872.856 396.811 823.535 411.455 818.314C423.171 814.138 443.506 815.02 459.445 808.952Z" fill="#DD3728"/>
<path d="M353.02 931.504L545.932 806.716C549.114 804.658 556.368 817 559.598 823.429L363.439 946.813L353.02 931.504Z" fill="#46274C"/>
<path d="M399.19 828.269L444.128 833.03" stroke="#46274C" stroke-width="3" stroke-linecap="round"/>
<path d="M411.333 817.392L454.593 813.488" stroke="#46274C" stroke-width="3" stroke-linecap="round"/>
<path d="M625.103 422.804C610.254 412.006 621.722 398.83 625.103 392.836C619.11 395.602 613.761 400.674 611.733 410.817C608.966 424.648 623.258 436.635 632.94 434.33C640.685 432.486 648.154 415.581 651.381 408.512C647.232 414.505 635.246 430.181 625.103 422.804Z" fill="#E97E77"/>
<path d="M354.588 931.205L546.355 805.703" stroke="white" stroke-width="4" stroke-linecap="round"/>
</svg>
