<svg width="412" height="405" viewBox="0 0 412 405" fill="none" xmlns="http://www.w3.org/2000/svg">
<path d="M58.577 119.265C63.3323 133.774 72.732 167.139 72.2878 184.529" stroke="#756662" stroke-width="4"/>
<path d="M112.47 220.162C111.193 251.351 117.163 317.851 151.257 334.336" stroke="black" stroke-opacity="0.53" stroke-width="3"/>
<path d="M103.852 221.833C106.725 255.621 102.224 325.425 61.234 334.336" stroke="black" stroke-opacity="0.53" stroke-width="3"/>
<path d="M48.9165 56.3578C39.9355 52.3345 27.9454 56.0492 25.7865 60.3666C24.5531 65.6094 23.0439 67.8049 35.7386 97.2704C48.4334 126.736 40.1828 137.317 52.9257 141.476C63.12 144.803 81.7707 136.131 83.4573 134.383C99.7621 124.327 60.1428 61.3869 48.9165 56.3578Z" fill="#DFA654"/>
<path d="M52.6163 54.1994C44.9062 48.9563 30.6731 56.0951 26.9661 58.0656C25.0636 62.6681 30.1032 69.0028 42.4391 94.2915C53.2519 116.458 49.2239 135.617 67.7278 138.701C78.3862 140.477 86.3958 132.739 88.0824 130.991C104.387 120.936 62.7017 61.0577 52.6163 54.1994Z" fill="#F2CD87"/>
<path d="M57.2418 193.906C57.2418 182.251 68.6852 176.019 72.045 176.019C100.79 177.685 202.381 181.69 187.448 205.554C172.516 229.419 124.781 236.952 89.007 223.821C58.7683 212.721 57.2418 202.396 57.2418 193.906Z" fill="#EABD7E"/>
<path d="M61.251 190.199C61.251 178.544 69.8373 176.327 73.1971 176.327C101.943 177.993 204.231 177.989 189.299 201.853C174.366 225.718 122.102 229.603 91.863 218.503C61.6243 207.403 61.251 198.688 61.251 190.199Z" fill="#F2CD87"/>
<ellipse cx="93.0168" cy="371.851" rx="42.2508" ry="5.5512" fill="#EDC9BC"/>
<path d="M89.0043 313.733H130.186" stroke="#756662" stroke-width="2"/>
<ellipse cx="152.848" cy="352.734" rx="22.5132" ry="21.588" fill="#DFA654"/>
<ellipse cx="155.933" cy="352.116" rx="20.6628" ry="21.588" fill="#F2CD87"/>
<ellipse cx="155.929" cy="351.804" rx="10.794" ry="11.4108" fill="#46274C"/>
<ellipse cx="55.3907" cy="352.424" rx="23.13" ry="21.8964" fill="#DFA654"/>
<ellipse cx="59.7156" cy="352.718" rx="20.6697" ry="21.721" fill="#F2CD87"/>
<ellipse cx="59.2063" cy="352.115" rx="11.6055" ry="11.7192" fill="#46274C"/>
<path d="M287.421 319.19L282.584 303.943L252.296 314.527L258.235 330.255L287.421 319.19Z" fill="#EAA296"/>
<path d="M287.145 319.073L290.046 328.892C293.788 349.586 274.088 349.201 263.771 346.422L257.959 330.138L287.145 319.073Z" fill="white"/>
<path d="M276.802 344.818L259.764 333.809C247.793 347.406 251.099 364.074 254.248 370.709L342.46 347.991C341.403 344.794 338.904 336.777 334.71 333.226C328.327 327.822 297.729 332.968 292.313 335.406C287.98 337.356 282.808 342.236 276.802 344.818Z" fill="#DD3728"/>
<path d="M340.605 342.661L253.075 364.474C251.631 364.833 253.261 368.786 254.256 370.717L342.247 347.893L340.605 342.661Z" fill="#46274C"/>
<path d="M298.461 334.392L287.845 345.693" stroke="#46274C" stroke-width="3" stroke-linecap="round"/>
<path d="M292.078 335.21L279.406 344.529" stroke="#46274C" stroke-width="3" stroke-linecap="round"/>
<path d="M340.101 342.97L252.671 364.386" stroke="white" stroke-width="4" stroke-linecap="round"/>
<path d="M184.301 341.372L190.871 325.669L159.817 314.663L153.786 331.479L184.301 341.372Z" fill="#EAA296"/>
<path d="M184.162 341.094L179.761 351.067C168.62 370.54 153.37 357.397 147.138 348.391L153.647 331.201L184.162 341.094Z" fill="white"/>
<path d="M158.49 355.553L152.568 335.396C133.886 338.796 125.143 354.671 123.106 362.184L208.03 400.914C209.375 397.594 212.864 389.367 211.979 383.712C210.632 375.108 183.036 359.422 177.112 357.903C172.372 356.687 164.978 357.338 158.49 355.553Z" fill="#E95850"/>
<path d="M210.202 395.319L126.431 356.287C125.049 355.644 123.641 359.959 123.11 362.197L207.933 400.696L210.202 395.319Z" fill="#46274C"/>
<path d="M182.645 361.073L166.591 363.464" stroke="#46274C" stroke-width="3" stroke-linecap="round"/>
<path d="M177.064 357.589L160.742 357.01" stroke="#46274C" stroke-width="3" stroke-linecap="round"/>
<path d="M209.594 395.248L126.171 355.954" stroke="white" stroke-width="4" stroke-linecap="round"/>
<path d="M66.2015 97.097C81.6488 78.5363 103.173 62.62 112.005 56.9819C119.838 59.2272 131.673 62.2508 134.906 59.3769C138.947 55.7845 156.311 68.9566 171.429 87.3676C178.884 96.4474 188.942 109.87 194.031 114.76C198.521 105.779 207.951 87.3676 214.687 76.7401L241.031 87.3676C232.35 148.438 210.047 170.442 189.989 170.442C173.943 170.442 162.049 154.276 158.107 146.193L158.107 170.442L93.7432 170.442C37.612 177.776 33.2712 153.977 37.0133 142.301C40.7553 130.626 46.8923 120.298 66.2015 97.097Z" fill="white"/>
<path d="M220.471 187.522C209.053 187.782 169.081 180.596 142.245 187.522L106.981 191.909C107.192 199.79 133.608 192.732 146.012 199.113C158.415 205.493 214.104 188.008 220.471 219.088L236.057 318.798L304.702 306.191C285.529 268.369 259.338 209.59 247.354 193.872C244.419 190.022 234.743 187.196 220.471 187.522Z" fill="#9872EF"/>
<path d="M232.534 176.282C222.546 170.283 172.373 180.19 145.639 171.363L94.3915 171.363C90.5088 178.06 87.7952 185.124 93.1669 196.549C104.186 219.987 140.917 224.71 186.918 210.015L138.643 318.11L204.758 341.898C224.348 258.117 231.274 213.696 232.535 210.015C235.014 202.776 245.02 183.781 232.534 176.282Z" fill="#9872EF"/>
<path d="M171.703 167.212L94.2198 168.04L92.46 174.956L170.822 172.395L171.703 167.212Z" fill="#46274C"/>
<rect width="1.43317" height="7.75273" transform="matrix(0.999455 -0.0330249 0.0383729 0.999264 109.352 166.641)" fill="white"/>
<rect width="1.43317" height="7.38106" transform="matrix(0.999455 -0.0330249 0.0383729 0.999264 149.113 165.649)" fill="white"/>
<rect width="1.43317" height="7.75273" transform="matrix(0.999455 -0.0330249 0.0383729 0.999264 100.399 166.936)" fill="white"/>
<path d="M130.642 65.9277L127.162 59.9126L122.115 65.9277C119.052 91.2618 116.43 137.46 115.502 157.392H123.333C122.916 149.042 128.032 92.9366 130.642 65.9277Z" fill="#8697FB"/>
<path d="M116.374 51.3293C126.26 50.2554 139.704 50.5671 142.044 51.3293L127.215 59.4485L116.374 51.3293Z" fill="#46274C"/>
<path d="M146.077 19.9749C146.665 17.1636 145.833 14.3524 145.343 13.2981C140.447 10.9554 129.921 6.97279 126.984 9.78406C124.046 12.5953 125.27 21.0291 126.249 24.8946C121.109 13.2981 110.828 19.2721 110.828 26.3002C110.828 31.9228 117.192 33.3284 120.374 33.3284V56.8728C128.306 63.3387 135.184 59.5669 137.632 56.8728L138.366 46.3305C150.116 42.8164 149.015 31.9228 147.546 28.4087C146.077 24.8946 145.343 23.489 146.077 19.9749Z" fill="#EAA296"/>
<ellipse cx="1.87846" cy="3.82186" rx="1.87846" ry="3.82186" transform="matrix(0.987054 -0.160386 0.136365 0.990659 143.818 26.7258)" fill="#E9746E" fill-opacity="0.78"/>
<ellipse cx="3.1979" cy="4.60897" rx="3.1979" ry="4.60897" transform="matrix(0.984571 0.174985 -0.117907 0.993025 128.696 25.4128)" fill="#E9746E" fill-opacity="0.78"/>
<path d="M125.882 43.8718C130.582 47.2453 136.408 46.9174 138.733 46.3317L137.952 53.5441C131.49 52.4196 127.228 46.4488 125.882 43.8718Z" fill="#46274C"/>
<path d="M117.438 18.5698C122.725 17.7265 125.437 23.3677 126.294 25.9447C126.171 22.4306 126.617 14.5637 128.086 14.0014C129.922 13.2986 140.937 14.0014 145.343 13.2986C149.75 12.5958 152.687 11.1902 153.054 7.32467C153.348 4.23228 151.953 2.05298 149.383 1.70203C139.568 0.361887 123.313 0.999213 120.375 3.10766C118.025 4.79442 117.438 8.02738 117.438 9.43301V18.5698Z" fill="#46274C"/>
<path d="M114.866 23.1382L121.245 25.4146L117.069 27.7065" stroke="#46274C" stroke-width="2" stroke-linecap="round"/>
<path d="M137.429 22.23C137.17 24.1171 135.799 27.8912 132.383 27.8912C128.112 27.8912 127.336 23.7397 127.336 22.23" stroke="white" stroke-width="2"/>
<path d="M149.959 22.23C149.571 23.8484 148.095 27.2346 145.3 27.8322C142.505 28.4297 140.513 24.3464 139.866 22.23" stroke="white" stroke-width="2"/>
<path d="M149.959 22.23H124.9" stroke="white" stroke-width="2" stroke-linecap="round"/>
<path d="M111.627 57.3207L116.873 50.9507L127.111 59.7089L142.147 51.0697L145.088 62.5661C120.841 59.9776 114.079 59.8442 111.627 57.3207Z" fill="white"/>
<path d="M122.289 66.1032C118.759 95.6271 115.503 144.3 115.503 158.276" stroke="#46274C" stroke-width="2"/>
<path d="M130.375 65.2924L123.332 153.501" stroke="#46274C" stroke-width="2"/>
<path d="M144.391 62.5657L134.063 71.351L127.006 59.9681L118.936 70.2659L111.462 56.5309" stroke="#46274C" stroke-width="2"/>
<ellipse cx="1.70055" cy="1.67951" rx="1.70055" ry="1.67951" transform="matrix(-0.924625 -0.380878 -0.370247 0.928933 128.299 68.978)" fill="white"/>
<ellipse cx="1.70055" cy="1.67951" rx="1.70055" ry="1.67951" transform="matrix(-0.924625 -0.380878 -0.370247 0.928933 127.004 86.002)" fill="white"/>
<path d="M153.791 1.55629C156.4 4.35699 156.455 13.5772 144.779 12.4499" stroke="#46274C" stroke-width="2" stroke-linecap="round"/>
<path d="M193.118 116.172C192.306 121.539 190.682 133.191 190.682 136.871" stroke="#46274C" stroke-width="2" stroke-linecap="round"/>
<ellipse cx="2.17684" cy="1.25493" rx="2.17684" ry="1.25493" transform="matrix(-0.970601 -0.240693 -0.233321 0.9724 127.086 162.323)" fill="white" fill-opacity="0.63"/>
<path d="M265.821 107.053H306.215C309.211 107.053 311.534 109.669 311.18 112.644L304.245 170.885H247.144L260.948 110.931C261.471 108.661 263.492 107.053 265.821 107.053Z" fill="white" stroke="#46274C" stroke-width="2" stroke-linecap="round"/>
<path d="M219.786 164.742L252.079 165.125L251.209 171.327H233.051L214.727 169.812V169.741C214.727 166.957 217.002 164.709 219.786 164.742Z" fill="#46274C"/>
<path d="M269.286 106.645H316.308C319.526 106.645 321.906 109.64 321.179 112.774L307.54 171.605L250.659 170.862L264.411 110.534C264.93 108.259 266.953 106.645 269.286 106.645Z" fill="#46274C"/>
<ellipse cx="5.06714" cy="7.31838" rx="5.06714" ry="7.31838" transform="matrix(-1 0 0 1 291.751 130.804)" fill="white" fill-opacity="0.47"/>
<rect x="119.926" y="169.961" width="248.019" height="5.59705" rx="2.79853" fill="#E9C5B8"/>
<path d="M95.9327 153.579L96.7132 164.569C98.2075 167.067 104.284 166.617 105.897 165.511L107.717 164.941C111.567 164.88 115.278 165.045 117.806 166.754C120.056 168.275 127.674 176.151 130.17 174.746C132.166 173.622 129.447 168.875 128.658 167.559C132.466 170.092 137.346 171.92 138.11 169.429C138.72 167.436 136.436 166.143 134.469 165.055C144.612 166.326 148.798 165.556 145.401 163.44C134.405 156.591 127.465 150.037 95.9327 153.579Z" fill="#EAA296"/>
<path d="M133.665 164.037C132.05 162.952 128.403 160.564 126.736 159.692" stroke="#46274C" stroke-width="2" stroke-linecap="round"/>
<path d="M128.992 168.276C126.937 165.997 122.267 161.293 120.03 160.701C117.793 160.11 116.759 160.196 116.522 160.313" stroke="#46274C" stroke-width="2" stroke-linecap="round"/>
<ellipse cx="2.53478" cy="1.05133" rx="2.53478" ry="1.05133" transform="matrix(0.805556 0.580489 0.55228 -0.841631 133.349 166.679)" fill="white" fill-opacity="0.63"/>
<ellipse cx="2.01465" cy="1.02428" rx="2.01465" ry="1.02428" transform="matrix(0.94642 0.309487 0.228209 -0.976547 141.96 164.348)" fill="white" fill-opacity="0.63"/>
<ellipse cx="2.14878" cy="1.19577" rx="2.14878" ry="1.19577" transform="matrix(0.343377 0.9336 0.925733 -0.392613 127.228 170.202)" fill="white" fill-opacity="0.63"/>
<path d="M99.4038 170.138C108.944 171.678 108.694 163.701 120.008 168.635C117.496 165.282 111.108 163.296 106.819 164.519C103.388 165.498 99.8154 165.292 99.4038 165.198L99.4038 170.138Z" fill="#E97E77"/>
<path d="M101.228 169.992L103.497 142.603L95.7139 141.854L93.594 169.992L101.228 169.992Z" fill="#8697FB"/>
<path d="M225.344 42.8972C225.328 46.2036 224.178 54.9886 223.605 58.9679L245.698 61.1873C249.842 55.5145 247.842 43.2259 250.875 44.2314C253.909 45.2369 253.34 33.3285 251.762 29.9869C250.499 27.3136 247.583 26.7814 246.283 26.8494C248.156 22.8021 247.139 19.2942 245.287 19.2085C243.805 19.14 239.606 23.4322 237.692 25.5869C235.151 23.5467 232.907 27.3293 232.048 28.2188C224.682 5.95883 217.506 7.44461 218.862 12.1219C220.217 16.7992 225.365 38.7643 225.344 42.8972Z" fill="#EAA296"/>
<path d="M243.194 80.975L246.926 59.2762L226.4 56.7686L218.755 68.9811L243.194 80.975Z" fill="#EAA296"/>
<path d="M247.044 60.5198C240.821 58.143 226.062 55.0392 223.666 55.1137L221.638 64.4465C224.356 64.3908 242.217 68.8003 245.405 69.7361L247.044 60.5198Z" fill="#46274C"/>
<path d="M226.104 65.1387C227.951 61.9043 228.424 57.4664 228.286 55.798L226.592 55.6952L224.51 65.2033L226.104 65.1387Z" fill="white"/>
<ellipse cx="8.04438" cy="4.5067" rx="8.04438" ry="4.5067" transform="matrix(-0.289083 0.96397 0.947709 0.298457 220.782 50.5344)" fill="#46274C"/>
<ellipse cx="8.04438" cy="4.5067" rx="8.04438" ry="4.5067" transform="matrix(-0.289083 0.96397 0.947709 0.298457 219.446 50.3433)" fill="white"/>
<path d="M220.308 56.6971L220.882 59.0972L217.618 62.0021" stroke="#46274C" stroke-width="2" stroke-linecap="round"/>
<path d="M241.035 90.0638L214.372 77.8126L218.339 68.8536L244.328 80.933L241.035 90.0638Z" fill="#8697FB"/>
<path d="M245.645 29.1173C245.666 33.9252 246.784 43.539 251.046 44.3223C251.147 44.3206 251.24 44.3349 251.322 44.3602C251.229 44.3516 251.137 44.339 251.046 44.3223C250.383 44.3334 249.399 45.0347 249.254 47.8675C249.045 51.9477 248.188 53.985 247.16 54.2344C247.74 50.3691 247.265 41.8935 240.723 38.9142C241.868 36.7489 244.455 31.758 245.645 29.1173Z" fill="#E97E77"/>
<path d="M232.833 33.5085C234.334 30.3565 236.224 27.3905 238.642 24.6697C243.749 18.9243 244.554 18.7903 246.211 19.2515C247.868 19.7126 248.271 25.3072 240.661 38.9913C243.179 39.6205 247.995 43.4836 247.115 53.9027" stroke="#46274C" stroke-width="2" stroke-linecap="round"/>
<path d="M244.324 74.6434L223.369 71.2007L243.277 80.481L244.324 74.6434Z" fill="#E97E77"/>
<path d="M95.8387 115.059L71.141 139.907L82.966 141.104L94.1922 141.703C88.0552 141.376 91.7973 124.04 95.8387 115.059Z" fill="#ECE9E8"/>
<path d="M69.4947 139.757C75.1827 140.506 83.4152 141.554 94.3421 141.554" stroke="#46274C" stroke-width="2"/>
<path d="M113.97 375.722L170.027 174.811H184.055L151.176 279.098L119.764 375.722H113.97Z" fill="#E9C5B8"/>
<path d="M402.909 380.768L341.301 174.063H325.722L362.235 278.537L395.62 380.768H402.909Z" fill="#E9C5B8"/>
<path d="M225.173 249.195C233.416 209.177 237.921 194.433 238.62 188.641C240.89 189.343 243.161 190.221 246.479 193.029C244.942 199.348 231.984 233.749 225.173 249.195Z" fill="#7C4CEB"/>
<path d="M387.603 59.0226L400.126 49.4006H339.958V83.9069H387.603V59.0226Z" fill="#E9C5B8"/>
<path d="M395.651 51.2006L408.173 41.5786H348.006V76.0849H395.651V51.2006Z" fill="white" fill-opacity="0.68" stroke="#46274C" stroke-opacity="0.63" stroke-width="2" stroke-linecap="round"/>
<rect width="17.7142" height="1.32716" transform="matrix(-1 0 0 1 385.573 49.2109)" fill="#46274C"/>
<rect width="10.3842" height="1.32716" transform="matrix(-1 0 0 1 385.573 57.8369)" fill="#46274C"/>
<rect width="10.3842" height="1.32716" transform="matrix(-1 0 0 1 367.246 65.1357)" fill="#46274C"/>
<rect width="10.3842" height="1.32716" transform="matrix(-1 0 0 1 366.637 49.2109)" fill="#46274C"/>
<rect width="14.6601" height="1.32716" transform="matrix(-1 0 0 1 371.525 57.8369)" fill="#46274C"/>
<rect width="17.1034" height="1.32716" transform="matrix(-1 0 0 1 385.573 65.1357)" fill="#46274C"/>
<path d="M183.682 175.559H169.625L169.104 177.482L182.467 178.923L183.682 175.559Z" fill="#46274C"/>
<path d="M326.095 175.559H341.714L342.542 178.407L327.333 179.297L326.095 175.559Z" fill="#46274C"/>
</svg>
