<svg width="181" height="47" viewBox="0 0 181 47" fill="none" xmlns="http://www.w3.org/2000/svg">
<path d="M47.1465 35.2865V0.0507812H52.621V13.9421C54.345 11.3744 56.9307 10.0901 60.3779 10.0892C63.3184 10.0892 65.5913 10.9594 67.197 12.7C68.8027 14.4405 69.6057 16.8656 69.6059 19.9754V35.2865H64.1313V20.7359C64.1313 16.7142 62.3398 14.7031 58.7569 14.7026C56.9651 14.7026 55.4949 15.2434 54.3463 16.3249C53.1979 17.4065 52.6229 18.9275 52.622 20.888V35.2862L47.1465 35.2865Z" fill="white"/>
<path d="M95.4799 32.2453C93.0463 34.6789 89.9878 35.8955 86.3036 35.8955C82.6197 35.8955 79.5524 34.6789 77.1016 32.2453C74.651 29.8116 73.4258 26.7185 73.426 22.9659C73.4262 19.2136 74.6514 16.1296 77.1016 13.7141C79.552 11.298 82.6193 10.0897 86.3036 10.0891C89.988 10.0886 93.0467 11.2969 95.4799 13.7141C97.9138 16.1311 99.1307 19.2151 99.1305 22.9659C99.1303 26.717 97.9134 29.81 95.4799 32.2453ZM81.1071 29.1522C82.4073 30.6732 84.1396 31.4338 86.3036 31.4338C88.4678 31.4338 90.1999 30.6732 91.5002 29.1522C92.8008 27.6313 93.4514 25.5693 93.452 22.9659C93.452 20.3976 92.7931 18.3528 91.475 16.8316C90.1569 15.3104 88.4331 14.5499 86.3036 14.5501C84.1402 14.5501 82.4079 15.3021 81.1071 16.8061C79.806 18.3101 79.1554 20.3631 79.155 22.9649C79.155 25.5693 79.8056 27.6317 81.1071 29.1522Z" fill="white"/>
<path d="M111.801 35.8947C106.764 35.8947 104.246 33.1906 104.246 27.7827V15.3109H100.445V10.6975H104.399L105.667 3.44897H109.773V10.6975H119.558V15.3109H109.773V27.6309C109.773 29.8957 110.601 31.028 112.257 31.0278C113.812 31.0278 115.214 29.6081 116.465 26.7689L120.724 28.9492C118.628 33.58 115.654 35.8951 111.801 35.8947Z" fill="white"/>
<path d="M122.484 46.5415C120.051 46.5415 118.04 45.8655 116.451 44.5135L118.479 40.2041C119.46 41.3527 120.524 41.9275 121.673 41.9287C123.194 41.9287 123.955 40.9486 123.955 38.9882V10.6975H129.429V39.0883C129.429 41.7247 128.779 43.6259 127.477 44.7918C126.176 45.9578 124.512 46.5409 122.484 46.5415ZM126.692 6.53992C125.792 6.57046 124.917 6.24228 124.259 5.62759C123.942 5.32922 123.693 4.96701 123.527 4.56497C123.361 4.16293 123.282 3.73019 123.296 3.29543C123.284 2.85711 123.363 2.42107 123.529 2.01515C123.695 1.60922 123.943 1.24231 124.259 0.937827C124.921 0.334453 125.784 0 126.68 0C127.575 0 128.439 0.334453 129.101 0.937827C129.423 1.23852 129.678 1.60415 129.848 2.01055C130.018 2.41694 130.101 2.85488 130.089 3.29543C130.097 3.72801 130.013 4.15734 129.843 4.555C129.672 4.95266 129.419 5.30957 129.101 5.60213C128.781 5.90928 128.403 6.15023 127.99 6.31115C127.577 6.47208 127.136 6.54983 126.692 6.53992Z" fill="white"/>
<path d="M143.028 35.8952C140.222 35.8952 137.949 35.1937 136.209 33.7913C134.468 32.3886 133.598 30.5049 133.598 28.1396C133.598 25.9766 134.502 24.1427 136.31 22.6376C138.118 21.1328 140.391 20.3807 143.129 20.3817C145.935 20.3817 148.301 21.2774 150.227 23.0689V20.0773C150.227 18.3204 149.779 16.96 148.883 15.9961C147.987 15.0322 146.712 14.5505 145.056 14.5511C141.71 14.5511 139.631 16.2578 138.82 19.6714L133.8 18.6069C134.476 15.9707 135.811 13.8921 137.806 12.3711C139.801 10.8501 142.285 10.0896 145.258 10.0896C148.503 10.0896 151.064 10.9431 152.939 12.65C154.815 14.357 155.753 16.8496 155.753 20.1277V35.2868H150.43V32.1938C148.638 34.6616 146.171 35.8956 143.028 35.8952ZM144.041 31.8393C146.474 31.8393 148.536 30.6226 150.227 28.1892V27.4279C148.536 25.4001 146.474 24.386 144.041 24.3862C142.621 24.3862 141.472 24.733 140.592 25.4264C140.176 25.7328 139.839 26.1342 139.61 26.5973C139.38 27.0602 139.265 27.5714 139.273 28.0878C139.26 28.6099 139.37 29.1276 139.595 29.5991C139.82 30.0703 140.153 30.482 140.566 30.8002C141.43 31.4931 142.589 31.8395 144.042 31.8393H144.041Z" fill="white"/>
<path d="M161.08 35.2864V10.6974H166.403V14.956C167.755 11.8467 170.087 10.2919 173.4 10.2917C175.359 10.2917 176.982 10.9339 178.267 12.2182C179.552 13.5026 180.194 15.2263 180.193 17.3895C180.179 18.6842 179.957 19.9683 179.534 21.1919L174.515 20.685C174.618 20.013 174.685 19.3361 174.717 18.6571C174.717 16.1222 173.67 14.8547 171.574 14.8545C170.154 14.8545 168.963 15.6065 168 17.1105C167.037 18.6146 166.555 20.6004 166.555 23.0681V35.2864H161.08Z" fill="white"/>
<path d="M12.9537 14.4598C17.0339 12.193 22.622 9.08788 22.622 0.0507812H15.8555C15.8555 5.10706 13.3938 6.47461 9.6676 8.5448C5.58744 10.8124 -0.000701904 13.9162 -0.000701904 22.9542H6.76583C6.76583 17.8975 9.22745 16.53 12.9537 14.4598Z" fill="#FF3C00"/>
<path d="M24.6662 12.3831C24.6662 17.4396 22.2045 18.8071 18.4783 20.8771C14.3993 23.1438 8.81003 26.2485 8.81003 35.2863H15.5763C15.5763 30.2298 18.0379 28.8622 21.7641 26.7921C25.8443 24.5254 31.4322 21.421 31.4322 12.3831H24.6662Z" fill="#FF3C00"/>
</svg>
