<svg width="163" height="46" viewBox="0 0 163 46" fill="none" xmlns="http://www.w3.org/2000/svg">
<path d="M17.5526 7.60815V20.5662H5.64802V7.60815H0V38.5408H5.64955V26.0032H17.5511V38.5408H23.2021V7.60815H17.5526ZM41.2853 28.5428C41.2853 29.7827 40.7928 30.9717 39.916 31.8484C39.0393 32.7251 37.8503 33.2177 36.6104 33.2177C35.3706 33.2177 34.1815 32.7251 33.3048 31.8484C32.4281 30.9717 31.9356 29.7827 31.9356 28.5428V15.2928H26.5766V28.5428C26.5766 31.2013 27.6327 33.751 29.5125 35.6308C31.3924 37.5107 33.942 38.5668 36.6005 38.5668C39.259 38.5668 41.8086 37.5107 43.6885 35.6308C45.5683 33.751 46.6244 31.2013 46.6244 28.5428V15.2928H41.2853V28.5428ZM80.9942 16.6581C80.9942 13.9412 82.7907 13.0803 84.7585 13.0803C86.3456 13.0803 88.4403 14.2882 89.8118 15.753L93.3207 11.6156C91.5685 9.24568 88.0152 7.60815 85.1056 7.60815C79.2909 7.60815 75.0862 11.0132 75.0862 16.6581C75.0862 27.1316 87.8868 23.8076 87.8868 29.6697C87.8868 31.4769 86.1315 33.0732 84.1225 33.0732C80.9529 33.0732 79.9254 31.5243 78.4698 29.8853L74.574 33.9355C77.0662 36.9935 80.1395 38.5469 83.8197 38.5469C89.3439 38.5469 93.7871 35.1006 93.7871 29.7125C93.7871 18.0862 80.985 21.6992 80.985 16.6581M160.186 33.5991C157.019 33.5991 156.119 32.2292 156.119 30.1314V20.8429H161.042V16.1368H156.119V9.9276L150.685 12.3663V31.2858C150.685 36.125 154.024 38.5637 158.602 38.5637C159.32 38.5759 160.039 38.5178 160.745 38.3925L162.071 33.512C161.473 33.5533 160.787 33.5945 160.186 33.5945M61.6848 15.4472C59.0305 15.4472 57.1774 16.2178 55.3854 17.9746V7.79316H50.0188V26.6653C50.0188 33.7291 55.1255 38.5698 60.8653 38.5698C67.2319 38.5698 72.8325 33.6435 72.8325 27.0108C72.8325 20.4607 67.6784 15.4518 61.6848 15.4518M61.6512 33.168C60.8513 33.168 60.0593 33.0104 59.3204 32.7043C58.5814 32.3983 57.91 31.9496 57.3444 31.3841C56.7789 30.8185 56.3302 30.1471 56.0241 29.4081C55.7181 28.6692 55.5605 27.8771 55.5605 27.0773C55.5605 26.2775 55.7181 25.4855 56.0241 24.7465C56.3302 24.0076 56.7789 23.3361 57.3444 22.7706C57.91 22.205 58.5814 21.7564 59.3204 21.4503C60.0593 21.1442 60.8513 20.9867 61.6512 20.9867C63.2665 20.9867 64.8157 21.6283 65.9579 22.7706C67.1001 23.9128 67.7418 25.462 67.7418 27.0773C67.7418 28.6927 67.1001 30.2418 65.9579 31.3841C64.8157 32.5263 63.2665 33.168 61.6512 33.168ZM119.969 26.7295C119.969 20.0846 114.381 15.1704 108.002 15.1704C102.264 15.1704 97.1554 20.0096 97.1554 27.075V45.9578H102.522V35.7626C104.311 37.5164 106.167 38.29 108.818 38.29C114.812 38.29 119.968 33.2811 119.968 26.7295M114.887 26.6622C114.887 28.2775 114.245 29.8267 113.103 30.9689C111.961 32.1112 110.412 32.7529 108.796 32.7529C107.181 32.7529 105.632 32.1112 104.489 30.9689C103.347 29.8267 102.706 28.2775 102.706 26.6622C102.706 25.0469 103.347 23.4977 104.489 22.3554C105.632 21.2132 107.181 20.5715 108.796 20.5715C110.412 20.5715 111.961 21.2132 113.103 22.3554C114.245 23.4977 114.887 25.0469 114.887 26.6622Z" fill="white"/>
<path d="M137.309 14.9105V9.51784C138.022 9.18479 138.625 8.65618 139.049 7.99355C139.473 7.33092 139.7 6.56153 139.704 5.77492V5.65108C139.704 3.35762 137.844 1.49839 135.551 1.49839H135.427C134.326 1.49839 133.27 1.9359 132.491 2.71468C131.712 3.49346 131.274 4.54971 131.274 5.65108V5.77492C131.278 6.56153 131.505 7.33092 131.929 7.99355C132.353 8.65618 132.956 9.18479 133.669 9.51784V14.9105C131.621 15.2241 129.692 16.0733 128.077 17.3722L113.288 5.8529C113.393 5.47219 113.448 5.08077 113.454 4.68782C113.456 3.76235 113.183 2.85712 112.671 2.08665C112.158 1.31617 111.428 0.71507 110.574 0.359368C109.719 0.00366633 108.779 -0.0906526 107.871 0.0883417C106.963 0.267336 106.128 0.711602 105.473 1.36494C104.817 2.01829 104.37 2.85135 104.188 3.75877C104.006 4.66618 104.098 5.60718 104.451 6.46273C104.803 7.31828 105.402 8.04995 106.171 8.56519C106.94 9.08043 107.844 9.35609 108.77 9.3573C109.579 9.35349 110.374 9.13733 111.074 8.73042L125.637 20.0632C124.329 22.0396 123.646 24.3643 123.678 26.7344C123.711 29.1044 124.456 31.4097 125.818 33.3499L121.388 37.7809C121.03 37.6664 120.657 37.6056 120.281 37.6005C119.521 37.6011 118.779 37.8268 118.148 38.2493C117.516 38.6717 117.024 39.2718 116.734 39.9738C116.443 40.6758 116.368 41.4481 116.516 42.1931C116.664 42.9382 117.03 43.6225 117.567 44.1597C118.104 44.6968 118.789 45.0627 119.534 45.2111C120.279 45.3594 121.051 45.2836 121.753 44.9932C122.455 44.7027 123.055 44.2107 123.478 43.5793C123.9 42.9479 124.126 42.2055 124.126 41.4458C124.122 41.0699 124.061 40.6968 123.946 40.3388L128.328 35.9553C129.757 37.0554 131.419 37.8138 133.186 38.1725C134.954 38.5311 136.78 38.4805 138.524 38.0244C140.269 37.5684 141.886 36.719 143.252 35.5414C144.618 34.3638 145.696 32.8892 146.404 31.2305C147.112 29.5719 147.43 27.7732 147.336 25.9724C147.241 24.1715 146.735 22.4162 145.858 20.8409C144.98 19.2656 143.753 17.9121 142.271 16.8842C140.79 15.8563 139.092 15.1811 137.309 14.9105ZM135.493 32.6466C134.683 32.6689 133.877 32.5286 133.122 32.2341C132.367 31.9396 131.679 31.4967 131.099 30.9318C130.518 30.3669 130.056 29.6913 129.741 28.9449C129.426 28.1986 129.264 27.3967 129.264 26.5865C129.264 25.7764 129.426 24.9744 129.741 24.2281C130.056 23.4817 130.518 22.8062 131.099 22.2412C131.679 21.6763 132.367 21.2335 133.122 20.9389C133.877 20.6444 134.683 20.5042 135.493 20.5264C137.062 20.5814 138.55 21.2434 139.641 22.3729C140.732 23.5025 141.342 25.0115 141.343 26.582C141.344 28.1526 140.735 29.6622 139.645 30.7929C138.555 31.9235 137.069 32.587 135.499 32.6435" fill="#FF7A59"/>
</svg>
