<svg width="138" height="29" viewBox="0 0 138 29" fill="none" xmlns="http://www.w3.org/2000/svg">
<path d="M124.316 28.3999C121.916 28.3999 119.996 27.9332 118.556 26.9999C117.143 26.0399 116.436 24.5065 116.436 22.3999C116.436 20.9332 116.809 19.7466 117.556 18.8399C118.303 17.9332 119.316 17.2666 120.596 16.8399C121.903 16.3866 123.383 16.1599 125.036 16.1599C126.263 16.1599 127.303 16.2666 128.156 16.4799C129.036 16.6932 129.743 16.9199 130.276 17.1599C130.809 17.3999 131.156 17.5732 131.316 17.6799C131.316 16.5599 131.196 15.6532 130.956 14.9599C130.716 14.2399 130.276 13.7199 129.636 13.3999C129.023 13.0532 128.156 12.8799 127.036 12.8799C125.409 12.8799 123.969 13.0399 122.716 13.3599C121.463 13.6799 120.436 14.0532 119.636 14.4799C118.863 14.9065 118.329 15.2665 118.036 15.5599V14.3599L117.636 10.4399C117.823 10.3332 118.316 10.1599 119.116 9.91988C119.916 9.67988 121.009 9.45322 122.396 9.23988C123.783 8.99988 125.436 8.87988 127.356 8.87988C129.996 8.87988 132.009 9.26655 133.396 10.0399C134.783 10.7865 135.729 11.8665 136.236 13.2799C136.769 14.6932 137.036 16.3999 137.036 18.3999V25.5999C137.036 26.3466 137.116 26.8932 137.276 27.2399C137.463 27.5599 137.649 27.8132 137.836 27.9999H131.356V27.1599L131.436 26.3999L131.356 26.3199C131.143 26.5599 130.836 26.7999 130.436 27.0399C130.036 27.2799 129.543 27.5066 128.956 27.7199C128.369 27.9066 127.689 28.0666 126.916 28.1999C126.143 28.3332 125.276 28.3999 124.316 28.3999ZM126.196 24.3599C127.316 24.3599 128.249 24.2799 128.996 24.1199C129.769 23.9332 130.356 23.6932 130.756 23.3999C131.156 23.0799 131.356 22.7065 131.356 22.2799C131.356 21.6665 130.889 21.1599 129.956 20.7599C129.049 20.3599 127.809 20.1599 126.236 20.1599C124.716 20.1599 123.636 20.3732 122.996 20.7999C122.383 21.2265 122.076 21.7599 122.076 22.3999C122.076 23.1999 122.436 23.7332 123.156 23.9999C123.876 24.2399 124.889 24.3599 126.196 24.3599Z" fill="#FFD054"/>
<path d="M98.3147 27.9999C98.5014 27.9999 98.6747 27.8132 98.8347 27.4399C99.0214 27.0665 99.1147 26.4532 99.1147 25.5999V12.0799C99.1147 11.2265 99.0214 10.6265 98.8347 10.2799C98.6747 9.90655 98.5014 9.70655 98.3147 9.67988C99.488 9.67988 100.688 9.59988 101.915 9.43988C103.141 9.25322 104.101 9.06655 104.795 8.87988V10.4799L104.715 11.1599L104.795 11.2399C104.981 10.9465 105.275 10.6265 105.675 10.2799C106.101 9.90655 106.635 9.58655 107.275 9.31988C107.941 9.02655 108.715 8.87988 109.595 8.87988C110.901 8.87988 112.061 9.06655 113.075 9.43988C114.088 9.78655 114.808 10.1465 115.235 10.5199L114.035 15.8799V17.0799C113.635 16.5199 113.088 15.9465 112.395 15.3599C111.728 14.7732 110.981 14.2799 110.155 13.8799C109.355 13.4799 108.528 13.2799 107.675 13.2799C106.715 13.2799 105.995 13.6265 105.515 14.3199C105.035 15.0132 104.795 16.1065 104.795 17.5999V25.5999C104.795 26.4532 104.875 27.0665 105.035 27.4399C105.221 27.8132 105.408 27.9999 105.595 27.9999H98.3147Z" fill="#FFD054"/>
<path d="M85.9785 28.3999C83.8718 28.3999 82.1118 28.1865 80.6985 27.7599C79.3118 27.3065 78.2051 26.6666 77.3785 25.8399C76.5518 24.9866 75.9651 23.9599 75.6185 22.7599C75.2718 21.5599 75.0984 20.1999 75.0984 18.6799C75.0984 15.6666 75.9385 13.2799 77.6185 11.5199C79.2985 9.75988 81.8718 8.87988 85.3385 8.87988C87.3651 8.87988 89.0051 9.15988 90.2585 9.71988C91.5385 10.2799 92.5118 11.0265 93.1785 11.9599C93.8451 12.8932 94.2985 13.9332 94.5385 15.0799C94.8051 16.1999 94.9385 17.3332 94.9385 18.4799V20.3599C94.9385 20.2799 94.5651 20.1999 93.8185 20.1199C93.0985 20.0132 91.8718 19.9599 90.1385 19.9599H80.8585C80.8585 21.4265 81.2985 22.5332 82.1785 23.2799C83.0851 23.9999 84.5518 24.3599 86.5785 24.3599C88.2851 24.3599 89.8051 24.1599 91.1385 23.7599C92.4985 23.3332 93.4851 22.9332 94.0984 22.5599V23.7599L94.4985 26.7999C93.9918 27.1465 93.0185 27.5066 91.5785 27.8799C90.1385 28.2266 88.2718 28.3999 85.9785 28.3999ZM82.3385 16.5199H89.2585C89.2585 15.9332 89.1251 15.3599 88.8585 14.7999C88.6185 14.2399 88.2185 13.7865 87.6585 13.4399C87.0985 13.0665 86.3251 12.8799 85.3385 12.8799C84.3518 12.8799 83.5518 13.0265 82.9385 13.3199C82.3518 13.6132 81.9118 13.9732 81.6185 14.3999C81.3518 14.8266 81.2185 15.2665 81.2185 15.7199C81.2185 15.9865 81.2985 16.1866 81.4585 16.3199C81.6185 16.4532 81.9118 16.5199 82.3385 16.5199Z" fill="#FFD054"/>
<path d="M59.9103 28.3998C58.3637 28.3998 57.0437 28.1331 55.9503 27.5998C54.857 27.0398 54.0303 26.0931 53.4703 24.7598C52.9103 23.3998 52.6303 21.5198 52.6303 19.1198V11.6798C52.6303 10.8265 52.537 10.2131 52.3503 9.83979C52.1903 9.46645 52.017 9.27979 51.8303 9.27979H59.1903C59.0037 9.27979 58.8037 9.46645 58.5903 9.83979C58.4037 10.2131 58.3103 10.8265 58.3103 11.6798V19.6798C58.3103 21.3598 58.617 22.5598 59.2303 23.2798C59.8703 23.9998 60.6037 24.3598 61.4303 24.3598C62.6037 24.3598 63.5103 24.0931 64.1503 23.5598C64.7903 22.9998 65.2437 22.2798 65.5103 21.3998C65.777 20.4931 65.9103 19.5465 65.9103 18.5598V11.6798C65.9103 10.8265 65.817 10.2265 65.6303 9.87979C65.4703 9.50645 65.297 9.30645 65.1103 9.27979H71.5903V25.5998C71.5903 26.4531 71.6703 27.0665 71.8303 27.4398C72.017 27.8131 72.2037 27.9998 72.3903 27.9998H65.9103V26.4398L65.9903 25.6398L65.9103 25.5598C65.6437 25.9598 65.3103 26.3331 64.9103 26.6798C64.5103 27.0265 64.057 27.3331 63.5503 27.5998C63.0437 27.8398 62.4837 28.0265 61.8703 28.1598C61.257 28.3198 60.6037 28.3998 59.9103 28.3998Z" fill="#D9ECFF"/>
<path d="M36.2525 28.3999C33.8792 28.3999 32.0125 27.9732 30.6525 27.1199C29.3192 26.2666 28.3725 25.1066 27.8125 23.6399C27.2792 22.1732 27.0125 20.5199 27.0125 18.6799C27.0125 16.8132 27.2792 15.1466 27.8125 13.6799C28.3725 12.2132 29.3192 11.0532 30.6525 10.1999C32.0125 9.3199 33.8792 8.8799 36.2525 8.8799C37.0525 8.8799 37.7725 8.94657 38.4125 9.0799C39.0792 9.21324 39.6658 9.3999 40.1725 9.6399C40.7058 9.85324 41.1725 10.1332 41.5725 10.4799L41.6525 10.4399L41.5725 9.6799V2.7999C41.5725 1.94657 41.4792 1.34657 41.2925 0.999904C41.1325 0.626571 40.9592 0.42657 40.7725 0.399902H47.2525V25.5999C47.2525 26.4532 47.3325 27.0666 47.4925 27.4399C47.6792 27.8132 47.8658 27.9999 48.0525 27.9999H41.5725V27.4799L41.6925 26.7199L41.5725 26.6799C41.1725 27.0266 40.7058 27.3332 40.1725 27.5999C39.6392 27.8399 39.0392 28.0266 38.3725 28.1599C37.7325 28.3199 37.0258 28.3999 36.2525 28.3999ZM36.9325 24.3599C37.8125 24.3599 38.5458 24.2266 39.1325 23.9599C39.7458 23.6932 40.2258 23.3199 40.5725 22.8399C40.9458 22.3332 41.1992 21.7332 41.3325 21.0399C41.4925 20.3199 41.5725 19.5332 41.5725 18.6799C41.5725 17.8266 41.4925 17.0532 41.3325 16.3599C41.1725 15.6399 40.9192 15.0266 40.5725 14.5199C40.2258 13.9866 39.7458 13.5866 39.1325 13.3199C38.5458 13.0266 37.8125 12.8799 36.9325 12.8799C35.6525 12.8799 34.6125 13.3199 33.8125 14.1999C33.0392 15.0799 32.6525 16.5866 32.6525 18.7199C32.6525 20.1332 32.8258 21.2532 33.1725 22.0799C33.5192 22.9066 34.0125 23.4932 34.6525 23.8399C35.2925 24.1866 36.0525 24.3599 36.9325 24.3599Z" fill="#D9ECFF"/>
<path d="M0 28C0.186667 28 0.373334 27.8133 0.56 27.44C0.746667 27.0667 0.84 26.4533 0.84 25.6V6.4C0.84 5.54667 0.746667 4.94667 0.56 4.6C0.373334 4.22667 0.186667 4.02667 0 4H23.36V5.2L24.16 9.84C23.4933 9.54667 22.32 9.24 20.64 8.92C18.96 8.57333 16.9333 8.4 14.56 8.4H8.64C7.84 8.4 7.36 8.46667 7.2 8.6C7.06667 8.70667 7 9.04 7 9.6V12.56C7 13.1467 7.06667 13.4933 7.2 13.6C7.36 13.7067 7.82667 13.76 8.6 13.76H14.36C15.9067 13.76 17.1467 13.68 18.08 13.52C19.04 13.3333 19.6667 13.1467 19.96 12.96C19.8533 13.4667 19.7333 14.0533 19.6 14.72C19.4667 15.3867 19.36 16.0267 19.28 16.64C19.2 17.2533 19.16 17.76 19.16 18.16H8.6C7.82667 18.16 7.36 18.2133 7.2 18.32C7.06667 18.4 7 18.7467 7 19.36V22.32C7 22.9333 7.06667 23.2933 7.2 23.4C7.33333 23.5067 7.8 23.56 8.6 23.56H19.4C20.9467 23.56 22.1867 23.3867 23.12 23.04C24.08 22.6667 24.7067 22.3067 25 21.96L24.2 26.76V28H0Z" fill="#D9ECFF"/>
</svg>
