<svg width="104" height="18" viewBox="0 0 104 18" fill="none" xmlns="http://www.w3.org/2000/svg">
<path d="M8.5 0.636719L10.4084 6.51007L16.584 6.51007L11.5878 10.14L13.4962 16.0134L8.5 12.3834L3.50383 16.0134L5.41219 10.14L0.416019 6.51007L6.59163 6.51007L8.5 0.636719Z" fill="#FAB437"/>
<path d="M30.5 0.636719L32.4084 6.51007L38.584 6.51007L33.5878 10.14L35.4962 16.0134L30.5 12.3834L25.5038 16.0134L27.4122 10.14L22.416 6.51007L28.5916 6.51007L30.5 0.636719Z" fill="#FAB437"/>
<path d="M52 0.636719L54.0206 6.51007L60.5595 6.51007L55.2694 10.14L57.2901 16.0134L52 12.3834L46.7099 16.0134L48.7306 10.14L43.4405 6.51007L49.9794 6.51007L52 0.636719Z" fill="#FAB437"/>
<path d="M73.5 0.636719L75.4084 6.51007L81.584 6.51007L76.5878 10.14L78.4962 16.0134L73.5 12.3834L68.5038 16.0134L70.4122 10.14L65.416 6.51007L71.5916 6.51007L73.5 0.636719Z" fill="#FAB437"/>
<path d="M95.5 0.636719L97.4084 6.51007L103.584 6.51007L98.5878 10.14L100.496 16.0134L95.5 12.3834L90.5038 16.0134L92.4122 10.14L87.416 6.51007L93.5916 6.51007L95.5 0.636719Z" fill="#CBC2FF"/>
</svg>
