<svg width="329" height="287" viewBox="0 0 329 287" fill="none" xmlns="http://www.w3.org/2000/svg">
<path d="M140.104 146.268C140.104 146.268 126.955 135.391 119.734 144.046C112.513 152.7 128.176 157.63 128.176 157.63L140.104 146.268Z" fill="#24285B"/>
<path d="M132.276 74.7645L102.838 109.308C102.356 109.874 101.753 110.325 101.073 110.625C100.392 110.926 99.653 111.068 98.9098 111.043C98.1667 111.017 97.4389 110.824 96.781 110.478C96.123 110.131 95.5518 109.641 95.1102 109.042L79.0786 87.4001L72.3173 92.7565C72.3173 92.7565 87.4129 127.691 98.674 129.087C109.935 130.483 133.386 111.127 133.386 111.127L132.276 74.7645Z" fill="#FFC935"/>
<path opacity="0.08" d="M132.276 74.7645L102.838 109.308C102.356 109.874 101.753 110.325 101.073 110.625C100.392 110.926 99.653 111.068 98.9098 111.043C98.1667 111.017 97.4389 110.824 96.781 110.478C96.123 110.131 95.5518 109.641 95.1102 109.042L79.0786 87.4001L72.3173 92.7565C72.3173 92.7565 87.4129 127.691 98.674 129.087C109.935 130.483 133.386 111.127 133.386 111.127L132.276 74.7645Z" fill="black"/>
<path d="M145.111 42.0578L150.599 63.0796L138.499 71.7177L139.552 49.0957L145.111 42.0578Z" fill="#F4A28C"/>
<path opacity="0.31" d="M139.233 52.6311C140.682 52.111 141.945 51.1769 142.868 49.9449C142.868 49.9449 143.084 53.9176 139.125 58.2497L139.233 52.6311Z" fill="#CE8172"/>
<path d="M135.341 41.2439C135.341 41.2439 134.5 47.8247 135.436 52.2512C135.526 52.6815 135.7 53.0896 135.949 53.4517C136.198 53.8139 136.517 54.1228 136.886 54.3606C137.256 54.5984 137.669 54.7602 138.102 54.8367C138.534 54.9131 138.978 54.9026 139.407 54.8058C140.805 54.5925 142.112 53.9791 143.169 53.0396C144.227 52.1001 144.99 50.8746 145.366 49.511L147.575 43.8083C147.896 42.6184 147.839 41.3585 147.413 40.2021C146.988 39.0457 146.214 38.0496 145.199 37.351C141.585 34.5139 135.64 37.2101 135.341 41.2439Z" fill="#F4A28C"/>
<path d="M135.02 45.4128L133.072 47.8908C132.971 48.0348 132.906 48.2008 132.883 48.3751C132.859 48.5493 132.877 48.7267 132.936 48.8924C132.994 49.0582 133.092 49.2076 133.22 49.3281C133.348 49.4485 133.503 49.5367 133.672 49.5851L136.182 50.1599L135.02 45.4128Z" fill="#F4A28C"/>
<path d="M147.906 50.6723L149.535 41.7896C149.535 41.7896 154.48 40.5545 152.732 37.3925C150.985 34.2306 149.136 36.5582 148.767 32.809C148.398 29.0598 145.297 28.5268 143.291 30.8011C141.285 33.0754 142.071 30.0561 139.345 29.8578C136.62 29.6595 136.012 30.8652 136.082 32.973C136.152 35.0809 132.116 33.1444 131.333 35.7826C130.549 38.4207 130.582 40.9913 137.325 40.8959C144.067 40.8004 139.612 46.7311 147.906 50.6723Z" fill="#7F56D9"/>
<path d="M142.175 47.2083C142.175 47.2083 142.326 44.6544 144.24 44.9347C146.155 45.215 145.949 48.8812 143.339 49.125L142.175 47.2083Z" fill="#F4A28C"/>
<path d="M148.863 222.124L155.218 233.624C161.983 245.832 173.234 254.929 186.588 258.987L197.685 262.394C198.079 262.519 198.5 262.532 198.9 262.429C199.3 262.327 199.664 262.115 199.95 261.816C200.236 261.518 200.432 261.145 200.516 260.741C200.6 260.336 200.569 259.916 200.426 259.528L191.026 233.216L148.863 222.124Z" fill="#A5BAFF"/>
<path d="M170.886 169.02L183.514 165.392C196.933 161.535 211.327 163.06 223.64 169.642L233.891 175.088C234.258 175.278 234.564 175.567 234.775 175.922C234.986 176.278 235.092 176.685 235.083 177.098C235.073 177.511 234.948 177.914 234.721 178.259C234.494 178.605 234.175 178.879 233.8 179.052L208.538 190.991L170.886 169.02Z" fill="#A5BAFF"/>
<path d="M18.6282 136.97C18.6282 136.97 40.2333 211.438 190.995 233.203L208.518 190.947C86.5881 99.6547 18.6282 136.97 18.6282 136.97Z" fill="#BECDFF"/>
<path opacity="0.08" d="M122.127 141.967C122.127 141.967 105.104 145.793 101.901 160.2C98.6989 174.607 108.513 200.063 108.513 200.063C108.513 200.063 99.7765 209.953 113.285 208.493L117.628 203.639L117.996 178.176L123.506 158.059L136.079 147.562L122.127 141.967Z" fill="black"/>
<path d="M138.477 71.7679L150.582 63.1195C150.582 63.1195 176.854 71.3023 177.798 95.4457C178.742 119.589 172.292 147.13 172.292 147.13L140.093 146.322C140.093 146.322 97.2256 105.582 138.477 71.7679Z" fill="#FFC935"/>
<path d="M172.303 147.075C172.303 147.075 173.533 173.643 158.297 170.192C150.405 168.531 142.369 167.644 134.305 167.543C132.286 167.507 130.323 168.201 128.775 169.498C127.228 170.794 126.2 172.606 125.883 174.6L122.208 197.868L114.327 200.132L112.174 171.413C111.858 166.891 113.068 162.395 115.609 158.642C118.151 154.89 121.878 152.098 126.194 150.715L140.064 146.251L172.303 147.075Z" fill="#24285B"/>
<path opacity="0.08" d="M150.035 98.0666C150.035 98.0666 140.16 112.084 144.359 124.315C148.558 136.547 153.064 146.54 153.064 146.54L140.058 146.212C140.058 146.212 128.651 134.851 124.118 122.445C119.585 110.04 142.913 91.9594 150.035 98.0666Z" fill="black"/>
<path d="M159.063 84.4748C163.61 71.5215 148.009 60.9419 137.382 69.6294C134.21 72.167 131.551 75.2851 129.545 78.8172C122.103 92.1829 82.7823 144.074 82.7823 144.074L90.6832 150.433C90.6832 150.433 133.454 116.353 151.664 96.3531C154.898 92.9268 157.414 88.8881 159.063 84.4748Z" fill="#FFC935"/>
<path opacity="0.19" d="M92.7305 155.548L71.1996 146.619C69.3642 145.858 67.2592 146.729 66.4981 148.564C65.7369 150.4 66.6078 152.505 68.4433 153.266L89.9742 162.194C91.8096 162.956 93.9146 162.085 94.6758 160.249C95.4369 158.414 94.566 156.309 92.7305 155.548Z" fill="#878787"/>
<path opacity="0.36" d="M159.063 84.4748C163.61 71.5215 148.009 60.9419 137.382 69.6294C134.21 72.167 131.551 75.2851 129.545 78.8172C122.103 92.1829 82.7823 144.074 82.7823 144.074L90.6832 150.433C90.6832 150.433 133.454 116.353 151.664 96.3531C154.898 92.9268 157.414 88.8881 159.063 84.4748Z" fill="white"/>
<path d="M84.075 145.135C84.075 145.135 73.0027 148.441 77.6836 153.345C82.3645 158.249 90.6752 150.453 90.6752 150.453L84.075 145.135Z" fill="#F4A28C"/>
<path d="M214.423 193.395L208.52 190.947L191.001 233.193L196.904 235.641L214.423 193.395Z" fill="#A5BAFF"/>
<path d="M211.84 199.624C211.84 199.624 263.903 220.09 271.996 237.712C280.089 255.333 200.375 227.271 200.375 227.271L211.84 199.624Z" fill="#FFD200"/>
<path opacity="0.33" d="M208.58 207.484C208.58 207.484 248.892 222.635 249.234 228.237C249.575 233.839 203.3 220.217 203.3 220.217L208.58 207.484Z" fill="white"/>
<path d="M74.4672 91.0557C74.4672 91.0557 66.1302 83.8469 72.9012 79.1875C79.6722 74.5281 79.0572 87.3915 79.0572 87.3915L74.4672 91.0557Z" fill="#F4A28C"/>
<path d="M84.5877 67.0926L73.6201 66.3578L72.4617 83.6461L83.4293 84.3809L84.5877 67.0926Z" fill="#FFD200"/>
<path d="M116.122 199.549C116.122 199.549 115.018 206.188 111.48 206.74C111.48 206.74 110.654 211.439 115.795 210.74C120.936 210.04 122.392 203.475 122.392 203.475L120.734 198.224L116.122 199.549Z" fill="#FFC935"/>
<path d="M64.3528 129.538L45.6798 174.567C45.6798 174.567 25.7884 159.15 18.6299 136.97C18.6299 136.97 36.6292 127.36 64.3528 129.538Z" fill="#A5BAFF"/>
</svg>
