<svg width="69" height="67" viewBox="0 0 69 67" fill="none" xmlns="http://www.w3.org/2000/svg">
<path d="M9.57143 28.9816L0.913826 28.5913L1.31357 27.3037L8.03491 27.6641L2.31463 24.0792L2.70766 22.8133L9.44504 23.0837L3.70535 19.5996L4.1051 18.312L11.466 22.879L10.9957 24.3938L4.71742 24.135L10.0417 27.4668L9.57143 28.9816Z" fill="black"/>
<path d="M9.29024 15.7446C9.51445 15.4407 9.74921 15.2243 9.99455 15.0953C10.2444 14.9602 10.478 14.8789 10.6955 14.8513C10.9129 14.8237 11.0875 14.8161 11.2191 14.8286L11.2595 14.7739L10.5384 14.2436L11.3052 13.2042L16.1427 16.7617L15.3759 17.8011L14.6549 17.2708L14.6145 17.3255C14.6654 17.4473 14.71 17.616 14.7481 17.8315C14.7862 18.0471 14.7777 18.294 14.7226 18.5722C14.672 18.8444 14.5345 19.1324 14.3103 19.4364C14.0413 19.801 13.7359 20.0687 13.3942 20.2393C13.0508 20.3993 12.6933 20.4833 12.3214 20.4911C11.9435 20.4944 11.5718 20.4321 11.2064 20.304C10.8455 20.1698 10.5098 19.9886 10.1995 19.7604C9.88916 19.5322 9.6163 19.2659 9.38091 18.9615C9.15001 18.6511 8.98316 18.3175 8.88037 17.9606C8.77149 17.5993 8.74573 17.2334 8.80307 16.863C8.85881 16.4821 9.0212 16.1093 9.29024 15.7446ZM10.3255 16.1544C10.1058 16.4522 10.0041 16.7618 10.0204 17.0832C10.0306 17.4001 10.1224 17.702 10.2956 17.9888C10.4734 18.2695 10.6992 18.5106 10.973 18.7119C11.2468 18.9133 11.5443 19.0571 11.8656 19.1433C12.1913 19.2234 12.5103 19.2236 12.8225 19.1439C13.1287 19.0596 13.3917 18.8686 13.6114 18.5708C13.8311 18.2729 13.9336 17.9686 13.9189 17.6578C13.9026 17.3364 13.8055 17.0353 13.6278 16.7546C13.4545 16.4678 13.231 16.2237 12.9572 16.0223C12.6834 15.821 12.3836 15.6802 12.0579 15.6001C11.7366 15.5139 11.4229 15.5129 11.1168 15.5971C10.809 15.6708 10.5452 15.8565 10.3255 16.1544Z" fill="black"/>
<path d="M19.6466 14.2302C19.2758 14.5285 18.924 14.6999 18.5913 14.7446C18.2585 14.7892 17.952 14.7401 17.6717 14.5972C17.3926 14.4437 17.1463 14.2346 16.9329 13.9701L14.9409 11.5011L14.1199 12.1615L13.4654 11.3502L14.2864 10.6899L13.3474 9.52594L14.3539 8.7165L15.2929 9.88045L16.3877 9L17.0422 9.81124L15.9474 10.6917L17.9251 13.143C18.2809 13.5839 18.703 13.6079 19.1915 13.215C19.3151 13.1156 19.4228 13.0145 19.5145 12.9117C19.6062 12.8088 19.6521 12.7574 19.6521 12.7574L20.3137 13.5775C20.3137 13.5775 20.2496 13.6484 20.1214 13.7902C19.9991 13.9274 19.8409 14.074 19.6466 14.2302Z" fill="black"/>
<path d="M24.9544 11.3185C24.4942 11.5291 24.0562 11.634 23.6403 11.6333C23.2212 11.6257 22.837 11.5399 22.4874 11.3759C22.1347 11.205 21.8228 10.9781 21.5516 10.6952C21.2873 10.4091 21.0748 10.0911 20.9141 9.74099C20.7533 9.3909 20.6507 9.02254 20.6062 8.6359C20.5685 8.24611 20.6016 7.8655 20.7053 7.49407C20.8059 7.11577 20.9917 6.76911 21.2626 6.45408C21.5304 6.13218 21.8944 5.86594 22.3546 5.65536C22.8079 5.44792 23.2137 5.34526 23.572 5.3474C23.9341 5.33953 24.2501 5.39427 24.5201 5.51162C24.7901 5.62897 25.0154 5.76675 25.196 5.92496C25.3767 6.08316 25.5089 6.2262 25.5925 6.35406C25.683 6.47877 25.7283 6.54113 25.7283 6.54113L24.6156 7.0503C24.6156 7.0503 24.5748 7.00668 24.4932 6.91943C24.4184 6.82903 24.3049 6.73562 24.1526 6.63919C24.0003 6.54276 23.8112 6.48393 23.5854 6.46268C23.3664 6.43829 23.1092 6.49367 22.8139 6.62882C22.4636 6.78911 22.2127 7.01193 22.0611 7.29727C21.9064 7.57574 21.8318 7.88398 21.8374 8.222C21.8498 8.55687 21.9301 8.88562 22.0782 9.20825C22.2263 9.53087 22.4234 9.80619 22.6693 10.0342C22.9222 10.2591 23.2063 10.4073 23.5217 10.4789C23.834 10.5437 24.1653 10.4959 24.5156 10.3356C24.8109 10.2004 25.0208 10.0421 25.1453 9.86056C25.2766 9.67587 25.3554 9.49445 25.3816 9.31631C25.4079 9.13816 25.4111 8.99132 25.3913 8.87578C25.3784 8.7571 25.3719 8.69776 25.3719 8.69776L26.4846 8.18859C26.4846 8.18859 26.5023 8.26352 26.5379 8.41338C26.5803 8.56009 26.6026 8.75342 26.6047 8.99334C26.6068 9.23327 26.5642 9.49363 26.4771 9.77441C26.3899 10.0552 26.2267 10.3334 25.9875 10.609C25.7521 10.8745 25.4077 11.111 24.9544 11.3185Z" fill="black"/>
<path d="M28.7759 9.95456L27.3818 1.45752L28.6565 1.24906L29.2196 4.68142L29.2867 4.67045C29.3217 4.55756 29.3904 4.41622 29.4927 4.24643C29.5937 4.06918 29.7463 3.90264 29.9503 3.74681C30.1618 3.58977 30.4428 3.48259 30.7931 3.4253C31.2329 3.35337 31.6184 3.39365 31.9496 3.54613C32.2808 3.69862 32.5484 3.93037 32.7525 4.2414C32.9641 4.55121 33.1029 4.90736 33.1689 5.30985L33.7962 9.13352L32.5216 9.34198L31.9163 5.65248C31.8576 5.29471 31.7074 5.0093 31.4658 4.79624C31.2316 4.58197 30.9208 4.50653 30.5331 4.56992C30.2275 4.6199 29.9906 4.73901 29.8225 4.92723C29.6606 5.10677 29.5551 5.32684 29.506 5.58744C29.4557 5.84058 29.4532 6.10504 29.4984 6.38082L30.0505 9.7461L28.7759 9.95456Z" fill="black"/>
<path d="M42.1785 10.4809L41.832 1.61108L43.1651 2.01708L43.4161 9.3773L47.728 3.40671L49.0611 3.81271L43.8043 10.976L42.1785 10.4809Z" fill="black"/>
<path d="M51.6404 7.07807C51.4389 6.95887 51.3136 6.79261 51.2645 6.57929C51.2154 6.36597 51.2448 6.16838 51.3527 5.9865C51.4645 5.79812 51.624 5.67743 51.8311 5.62442C52.042 5.56491 52.2483 5.59476 52.4498 5.71397C52.6514 5.83317 52.7767 5.99943 52.8257 6.21275C52.8852 6.42342 52.859 6.62294 52.7472 6.81131C52.6355 6.99969 52.4708 7.12171 52.2534 7.17737C52.0463 7.23037 51.8419 7.19728 51.6404 7.07807ZM47.504 12.8058L50.5682 7.64173L51.6799 8.29928L48.6157 13.4634L47.504 12.8058Z" fill="black"/>
<path d="M52.6557 16.8853C52.3283 16.572 52.1019 16.2353 51.9766 15.875C51.8619 15.5144 51.8247 15.1496 51.865 14.7804C51.9104 14.4058 52.0204 14.0458 52.1948 13.7004C52.3746 13.3603 52.5979 13.0513 52.8646 12.7734C53.1314 12.4954 53.4311 12.2595 53.7638 12.0656C54.1019 11.8769 54.4548 11.7546 54.8225 11.6987C55.1955 11.6373 55.5621 11.6589 55.9226 11.7633C56.2937 11.8674 56.643 12.0761 56.9705 12.3894C57.2434 12.6505 57.428 12.9108 57.5245 13.1703C57.6263 13.435 57.677 13.6768 57.6763 13.8956C57.6756 14.1145 57.6606 14.2883 57.6313 14.4171L57.6804 14.464L60.1045 11.9382L61.0378 12.831L55.0756 19.0435L54.1423 18.1507L54.7621 17.5049L54.7129 17.4579C54.5854 17.4927 54.4121 17.5151 54.1931 17.5251C53.9741 17.5351 53.73 17.4949 53.4608 17.4046C53.197 17.3195 52.9286 17.1464 52.6557 16.8853ZM53.6057 16.3046C53.8731 16.5604 54.1621 16.701 54.4728 16.7264C54.7941 16.7516 55.1056 16.6942 55.4074 16.5543C55.7146 16.4197 55.9859 16.2297 56.2212 15.9845C56.4566 15.7392 56.6351 15.4605 56.7567 15.1483C56.8838 14.8414 56.9253 14.5309 56.8812 14.2169C56.8477 13.9027 56.6973 13.6176 56.4299 13.3618C56.1624 13.1059 55.8681 12.9654 55.5467 12.9403C55.2306 12.9097 54.919 12.9617 54.6118 13.0964C54.31 13.2362 54.0415 13.4288 53.8061 13.674C53.5708 13.9193 53.3895 14.1954 53.2624 14.5023C53.1408 14.8145 53.0994 15.1304 53.1383 15.4498C53.1825 15.7638 53.3382 16.0487 53.6057 16.3046Z" fill="black"/>
<path d="M57.1858 22.9418C56.9298 22.5053 56.7831 22.0836 56.7458 21.6766C56.7189 21.2724 56.7714 20.8917 56.9034 20.5345C57.0458 20.1801 57.2461 19.8573 57.5045 19.5663C57.7666 19.2817 58.064 19.0422 58.3965 18.8478C58.7226 18.6572 59.074 18.5173 59.4508 18.4282C59.8276 18.3391 60.2057 18.3193 60.585 18.3688C60.9643 18.4183 61.3206 18.5555 61.654 18.7806C61.9939 19.0018 62.2881 19.3242 62.5365 19.7476C62.804 20.2037 62.9347 20.6654 62.9286 21.1327C62.9328 21.6027 62.7901 22.0536 62.5005 22.4854C62.2212 22.9199 61.7849 23.3107 61.1915 23.6576L60.8883 23.8349L58.733 20.1604C58.3505 20.419 58.0866 20.7527 57.9411 21.1615C57.7956 21.5703 57.847 21.9865 58.0954 22.4099C58.2368 22.651 58.3925 22.8268 58.5624 22.9375C58.7389 23.0443 58.9042 23.1095 59.0582 23.1332C59.2122 23.1569 59.3379 23.1622 59.4352 23.149C59.5364 23.1423 59.587 23.139 59.587 23.139L60.1946 24.1749C60.1946 24.1749 60.1263 24.1929 59.9899 24.229C59.8599 24.2612 59.6834 24.2813 59.4604 24.2892C59.2412 24.3036 58.999 24.279 58.734 24.2152C58.4689 24.1515 58.1993 24.0203 57.9253 23.8218C57.6578 23.6195 57.4113 23.3262 57.1858 22.9418ZM59.5212 19.7126L61.0402 22.3024C61.4814 22.0095 61.7369 21.6763 61.8069 21.3029C61.8807 20.9361 61.822 20.5897 61.6309 20.264C61.4169 19.8991 61.1186 19.6667 60.7359 19.5667C60.3598 19.4629 59.9549 19.5115 59.5212 19.7126Z" fill="black"/>
<path d="M59.5769 29.388C59.4123 28.7519 59.4158 28.1776 59.5875 27.6653C59.7611 27.1603 60.049 26.735 60.4511 26.3895C60.8551 26.0513 61.3167 25.8152 61.836 25.6813C62.3553 25.5473 62.8737 25.5306 63.3912 25.6311C63.9107 25.739 64.3688 25.9718 64.7657 26.3297C65.1645 26.6948 65.4462 27.1955 65.6108 27.8317C65.7735 28.4605 65.7681 29.0275 65.5944 29.5325C65.4227 30.0448 65.1349 30.4701 64.7309 30.8083C64.3288 31.1538 63.8681 31.3935 63.3488 31.5275C62.8295 31.6614 62.3101 31.6745 61.7907 31.5666C61.2732 31.4661 60.815 31.2333 60.4163 30.8681C60.0194 30.5103 59.7396 30.0169 59.5769 29.388ZM60.641 29.1135C60.7337 29.4719 60.9027 29.7481 61.148 29.9422C61.3952 30.1437 61.6848 30.2679 62.0168 30.3149C62.3508 30.3691 62.686 30.3529 63.0224 30.2661C63.3661 30.1774 63.6673 30.0296 63.9258 29.8225C64.1935 29.6208 64.3866 29.3721 64.5051 29.0763C64.6255 28.7879 64.6393 28.4645 64.5466 28.1062C64.4539 27.7479 64.2839 27.468 64.0368 27.2665C63.7896 27.0651 63.5 26.9408 63.168 26.8939C62.8432 26.845 62.509 26.8649 62.1653 26.9536C61.8288 27.0404 61.5268 27.1846 61.2591 27.3863C60.9914 27.5879 60.7982 27.8366 60.6797 28.1324C60.5612 28.4282 60.5483 28.7552 60.641 29.1135Z" fill="black"/>
<path d="M59.571 37.8565L68.2286 38.2468L67.8288 39.5344L61.1075 39.1741L66.8278 42.7589L66.4347 44.0249L59.6973 43.7544L65.437 47.2385L65.0373 48.5261L57.6763 43.9592L58.1466 42.4443L64.425 42.7032L59.1007 39.3714L59.571 37.8565Z" fill="black"/>
<path d="M59.8521 51.0935C59.6279 51.3974 59.3932 51.6138 59.1478 51.7428C58.898 51.8779 58.6644 51.9592 58.4469 51.9868C58.2294 52.0144 58.0549 52.022 57.9233 52.0096L57.8829 52.0643L58.604 52.5945L57.8372 53.6339L52.9997 50.0764L53.7664 49.0371L54.4875 49.5673L54.5279 49.5126C54.4769 49.3908 54.4324 49.2221 54.3943 49.0066C54.3562 48.7911 54.3647 48.5442 54.4198 48.2659C54.4704 47.9937 54.6078 47.7057 54.832 47.4018C55.1011 47.0371 55.4065 46.7694 55.7482 46.5988C56.0915 46.4388 56.4491 46.3549 56.821 46.347C57.1989 46.3437 57.5706 46.4061 57.936 46.5342C58.2969 46.6683 58.6326 46.8495 58.9429 47.0777C59.2532 47.3059 59.5261 47.5722 59.7615 47.8766C59.9924 48.187 60.1592 48.5207 60.262 48.8775C60.3709 49.2389 60.3967 49.6047 60.3393 49.9751C60.2836 50.356 60.1212 50.7288 59.8521 51.0935ZM58.8169 50.6838C59.0366 50.3859 59.1383 50.0763 59.122 49.7549C59.1117 49.438 59.02 49.1361 58.8467 48.8493C58.669 48.5686 58.4432 48.3276 58.1694 48.1262C57.8956 47.9248 57.598 47.7811 57.2768 47.6948C56.9511 47.6147 56.6321 47.6145 56.3198 47.6943C56.0137 47.7785 55.7507 47.9695 55.531 48.2674C55.3113 48.5652 55.2088 48.8695 55.2235 49.1804C55.2398 49.5018 55.3369 49.8028 55.5146 50.0836C55.6878 50.3704 55.9114 50.6144 56.1852 50.8158C56.459 51.0172 56.7588 51.1579 57.0845 51.2381C57.4057 51.3243 57.7194 51.3253 58.0256 51.241C58.3334 51.1673 58.5972 50.9816 58.8169 50.6838Z" fill="black"/>
<path d="M49.4958 52.6081C49.8666 52.3099 50.2184 52.1385 50.5511 52.0938C50.8838 52.0491 51.1904 52.0983 51.4706 52.2412C51.7498 52.3947 51.9961 52.6037 52.2095 52.8683L54.2014 55.3372L55.0225 54.6769L55.677 55.4882L54.8559 56.1485L55.795 57.3124L54.7885 58.1219L53.8495 56.9579L52.7547 57.8384L52.1002 57.0271L53.195 56.1467L51.2172 53.6953C50.8615 53.2545 50.4394 53.2305 49.9509 53.6233C49.8273 53.7227 49.7196 53.8239 49.6279 53.9267C49.5362 54.0296 49.4903 54.081 49.4903 54.081L48.8287 53.2609C48.8287 53.2609 48.8928 53.19 49.021 53.0481C49.1433 52.911 49.3015 52.7644 49.4958 52.6081Z" fill="black"/>
<path d="M44.188 55.5199C44.6482 55.3093 45.0862 55.2044 45.5021 55.2051C45.9211 55.2127 46.3054 55.2985 46.655 55.4625C47.0077 55.6333 47.3196 55.8602 47.5908 56.1432C47.8551 56.4292 48.0676 56.7473 48.2283 57.0974C48.389 57.4475 48.4917 57.8158 48.5362 58.2025C48.5738 58.5923 48.5408 58.9729 48.437 59.3443C48.3364 59.7226 48.1507 60.0693 47.8797 60.3843C47.612 60.7062 47.248 60.9724 46.7878 61.183C46.3345 61.3905 45.9287 61.4931 45.5703 61.491C45.2083 61.4988 44.8922 61.4441 44.6223 61.3268C44.3523 61.2094 44.127 61.0716 43.9463 60.9134C43.7657 60.7552 43.6335 60.6122 43.5499 60.4843C43.4594 60.3596 43.4141 60.2972 43.4141 60.2972L44.5268 59.7881C44.5268 59.7881 44.5676 59.8317 44.6492 59.919C44.7239 60.0093 44.8375 60.1028 44.9898 60.1992C45.1421 60.2956 45.3312 60.3545 45.557 60.3757C45.776 60.4001 46.0331 60.3447 46.3285 60.2096C46.6787 60.0493 46.9297 59.8265 47.0813 59.5411C47.236 59.2626 47.3106 58.9544 47.305 58.6164C47.2926 58.2815 47.2123 57.9528 47.0642 57.6301C46.9161 57.3075 46.719 57.0322 46.4731 56.8042C46.2202 56.5793 45.9361 56.4311 45.6206 56.3595C45.3083 56.2947 44.977 56.3425 44.6268 56.5028C44.3314 56.6379 44.1216 56.7963 43.9971 56.9778C43.8658 57.1625 43.787 57.3439 43.7608 57.5221C43.7345 57.7002 43.7313 57.8471 43.7511 57.9626C43.764 58.0813 43.7705 58.1406 43.7705 58.1406L42.6578 58.6498C42.6578 58.6498 42.64 58.5749 42.6045 58.425C42.5621 58.2783 42.5398 58.085 42.5377 57.845C42.5356 57.6051 42.5781 57.3448 42.6653 57.064C42.7525 56.7832 42.9157 56.505 43.1549 56.2294C43.3903 55.9638 43.7347 55.7273 44.188 55.5199Z" fill="black"/>
<path d="M40.3665 56.8838L41.7606 65.3809L40.4859 65.5893L39.9228 62.157L39.8557 62.1679C39.8206 62.2808 39.752 62.4222 39.6497 62.592C39.5487 62.7692 39.3961 62.9357 39.1921 63.0916C38.9805 63.2486 38.6996 63.3558 38.3493 63.4131C37.9095 63.485 37.524 63.4447 37.1928 63.2922C36.8616 63.1398 36.594 62.908 36.3899 62.597C36.1783 62.2872 36.0395 61.931 35.9735 61.5285L35.3461 57.7049L36.6208 57.4964L37.2261 61.1859C37.2848 61.5437 37.435 61.8291 37.6766 62.0421C37.9107 62.2564 38.2216 62.3318 38.6093 62.2685C38.9149 62.2185 39.1517 62.0994 39.3199 61.9112C39.4818 61.7316 39.5873 61.5115 39.6364 61.2509C39.6867 60.9978 39.6892 60.7333 39.644 60.4576L39.0919 57.0923L40.3665 56.8838Z" fill="black"/>
<path d="M26.9638 56.3573L27.3104 65.2271L25.9773 64.8211L25.7263 57.4608L21.4144 63.4314L20.0813 63.0254L25.3381 55.8622L26.9638 56.3573Z" fill="black"/>
<path d="M17.502 59.7606C17.7035 59.8798 17.8288 60.046 17.8779 60.2593C17.927 60.4726 17.8976 60.6702 17.7896 60.8521C17.6779 61.0405 17.5184 61.1612 17.3113 61.2142C17.1003 61.2737 16.8941 61.2439 16.6926 61.1247C16.491 61.0055 16.3657 60.8392 16.3166 60.6259C16.2572 60.4152 16.2834 60.2157 16.3951 60.0273C16.5069 59.8389 16.6715 59.7169 16.889 59.6613C17.0961 59.6082 17.3004 59.6413 17.502 59.7606ZM21.6384 54.0328L18.5742 59.1969L17.4625 58.5393L20.5267 53.3752L21.6384 54.0328Z" fill="black"/>
<path d="M16.4892 49.9531C16.8166 50.2663 17.043 50.6031 17.1684 50.9634C17.283 51.3239 17.3202 51.6888 17.2799 52.058C17.2345 52.4326 17.1245 52.7926 16.9501 53.1379C16.7703 53.4781 16.547 53.7871 16.2803 54.065C16.0135 54.3429 15.7138 54.5789 15.3811 54.7728C15.043 54.9615 14.6901 55.0838 14.3224 55.1397C13.9494 55.2011 13.5828 55.1795 13.2223 55.0751C12.8512 54.971 12.5019 54.7622 12.1744 54.449C11.9015 54.1879 11.7169 53.9276 11.6204 53.6681C11.5186 53.4034 11.4679 53.1616 11.4686 52.9427C11.4693 52.7239 11.4843 52.5501 11.5136 52.4213L11.4645 52.3743L9.0404 54.9002L8.10711 54.0074L14.0693 47.7948L15.0026 48.6877L14.3828 49.3335L14.432 49.3805C14.5595 49.3457 14.7328 49.3233 14.9518 49.3133C15.1708 49.3033 15.4149 49.3435 15.6841 49.4338C15.9479 49.5189 16.2163 49.692 16.4892 49.9531ZM15.5392 50.5338C15.2718 50.278 14.9828 50.1374 14.6721 50.112C14.3508 50.0868 14.0393 50.1442 13.7375 50.284C13.4303 50.4187 13.159 50.6087 12.9237 50.8539C12.6883 51.0991 12.5098 51.3778 12.3882 51.69C12.2611 51.997 12.2196 52.3075 12.2637 52.6215C12.2972 52.9357 12.4476 53.2207 12.715 53.4766C12.9825 53.7324 13.2768 53.8729 13.5982 53.8981C13.9143 53.9287 14.2259 53.8767 14.5331 53.742C14.8349 53.6021 15.1034 53.4096 15.3388 53.1643C15.5741 52.9191 15.7554 52.643 15.8825 52.336C16.0041 52.0238 16.0455 51.708 16.0066 51.3886C15.9624 51.0746 15.8067 50.7897 15.5392 50.5338Z" fill="black"/>
<path d="M11.9566 43.8963C12.2126 44.3329 12.3593 44.7546 12.3966 45.1615C12.4235 45.5657 12.371 45.9464 12.239 46.3036C12.0966 46.6581 11.8963 46.9808 11.6379 47.2719C11.3757 47.5564 11.0784 47.7959 10.7458 47.9903C10.4198 48.181 10.0684 48.3208 9.69157 48.4099C9.31475 48.499 8.9367 48.5188 8.55741 48.4693C8.17813 48.4199 7.82179 48.2826 7.48839 48.0576C7.14846 47.8363 6.8543 47.514 6.60591 47.0905C6.3384 46.6344 6.2077 46.1728 6.21382 45.7055C6.20959 45.2355 6.35228 44.7845 6.6419 44.3527C6.92118 43.9182 7.3575 43.5275 7.95086 43.1805L8.25406 43.0032L10.4094 46.6778C10.7918 46.4191 11.0558 46.0854 11.2013 45.6766C11.3468 45.2678 11.2954 44.8517 11.047 44.4282C10.9056 44.1871 10.7499 44.0113 10.5799 43.9007C10.4035 43.7939 10.2382 43.7286 10.0842 43.7049C9.93021 43.6812 9.80453 43.676 9.70718 43.6892C9.60601 43.6958 9.55542 43.6991 9.55542 43.6991L8.9478 42.6632C8.9478 42.6632 9.01604 42.6452 9.15251 42.6092C9.28247 42.5769 9.45896 42.5569 9.68199 42.5489C9.9012 42.5345 10.1433 42.5592 10.4084 42.6229C10.6735 42.6867 10.943 42.8178 11.2171 43.0163C11.4846 43.2186 11.7311 43.512 11.9566 43.8963ZM9.62121 47.1255L8.10216 44.5357C7.66101 44.8287 7.40546 45.1618 7.33551 45.5352C7.26173 45.9021 7.32038 46.2484 7.51145 46.5742C7.72546 46.939 8.02379 47.1714 8.40644 47.2714C8.78257 47.3752 9.18749 47.3266 9.62121 47.1255Z" fill="black"/>
<path d="M9.56551 37.4506C9.73012 38.0868 9.72657 38.661 9.55486 39.1733C9.38126 39.6783 9.0934 40.1036 8.69129 40.4491C8.28728 40.7873 7.82564 41.0234 7.30636 41.1574C6.78708 41.2913 6.26867 41.308 5.75114 41.2075C5.23171 41.0997 4.77356 40.8668 4.37669 40.509C3.97792 40.1438 3.69623 39.6431 3.53162 39.0069C3.36889 38.3781 3.37433 37.8112 3.54794 37.3062C3.71965 36.7938 4.00751 36.3686 4.41151 36.0304C4.81363 35.6848 5.27432 35.4451 5.7936 35.3111C6.31288 35.1772 6.83224 35.1641 7.35166 35.272C7.8692 35.3725 8.32735 35.6053 8.72611 35.9705C9.12299 36.3284 9.40278 36.8217 9.56551 37.4506ZM8.50135 37.7251C8.40863 37.3668 8.23963 37.0905 7.99435 36.8964C7.74717 36.6949 7.45757 36.5707 7.12553 36.5238C6.79161 36.4695 6.45643 36.4857 6.12 36.5725C5.77625 36.6612 5.47512 36.8091 5.21663 37.0161C4.94893 37.2178 4.75582 37.4665 4.63731 37.7623C4.51691 38.0508 4.50306 38.3742 4.59578 38.7325C4.68849 39.0908 4.85844 39.3707 5.10561 39.5721C5.35279 39.7736 5.6424 39.8978 5.97443 39.9447C6.29915 39.9936 6.63338 39.9737 6.97713 39.885C7.31356 39.7982 7.61563 39.654 7.88333 39.4524C8.15103 39.2507 8.34414 39.002 8.46265 38.7062C8.58116 38.4104 8.59406 38.0834 8.50135 37.7251Z" fill="black"/>
</svg>
