<svg width="552" height="244" viewBox="0 0 552 244" fill="none" xmlns="http://www.w3.org/2000/svg">
<path d="M186.667 118.596L186.667 116.596L182.667 116.596L182.667 118.596L186.667 118.596ZM4.00001 118.596L4.00001 116.596L1.08776e-05 116.596L1.07028e-05 118.596L4.00001 118.596ZM552 118.596L552 116.596L548 116.596L548 118.596L552 118.596ZM550 149.688L548 149.688L550 149.688ZM369.333 118.596L369.333 116.596L365.333 116.596L365.333 118.596L369.333 118.596ZM182.667 121.511L182.667 123.511L186.667 123.511L186.667 121.511L182.667 121.511ZM365.333 121.511L365.333 123.511L369.333 123.511L369.333 121.511L365.333 121.511ZM182.667 118.596L182.667 149.688L186.667 149.688L186.667 118.596L182.667 118.596ZM4.00001 149.688L4.00001 118.596L1.07028e-05 118.596L7.98461e-06 149.688L4.00001 149.688ZM93.3333 239.021C43.9959 239.021 4 199.025 4.00001 149.688L7.98461e-06 149.688C3.47827e-06 201.234 41.7867 243.021 93.3333 243.021L93.3333 239.021ZM182.667 149.688C182.667 199.025 142.671 239.021 93.3333 239.021L93.3333 243.021C144.88 243.021 186.667 201.234 186.667 149.688L182.667 149.688ZM548 118.596L548 149.688L552 149.688L552 118.596L548 118.596ZM369.333 149.688L369.333 118.596L365.333 118.596L365.333 149.688L369.333 149.688ZM458.667 239.021C409.329 239.021 369.333 199.025 369.333 149.688L365.333 149.688C365.333 201.234 407.12 243.021 458.667 243.021L458.667 239.021ZM548 149.688C548 199.025 508.004 239.021 458.667 239.021L458.667 243.021C510.213 243.021 552 201.234 552 149.688L548 149.688ZM186.667 121.511L186.667 93.3333L182.667 93.3333L182.667 121.511L186.667 121.511ZM365.333 93.3333L365.333 121.511L369.333 121.511L369.333 93.3333L365.333 93.3333ZM276 3.99996C325.337 3.99997 365.333 43.9959 365.333 93.3333L369.333 93.3333C369.333 41.7867 327.547 -3.47063e-05 276 -3.92126e-05L276 3.99996ZM186.667 93.3333C186.667 43.9959 226.663 3.99994 276 3.99996L276 -3.92126e-05C224.453 -5.89778e-05 182.667 41.7867 182.667 93.3333L186.667 93.3333Z" fill="white" fill-opacity="0.25"/>
</svg>
